<svg width="225" height="70" viewBox="0 0 225 70" fill="none" xmlns="http://www.w3.org/2000/svg">
<path d="M58 15.3643H63.7926V36.4933H74.2063V41.0556H58V15.3643Z" fill="#384050"/>
<path fill-rule="evenodd" clip-rule="evenodd" d="M86.8052 29.8091C81.0845 29.8091 77.0742 31.4621 77.0742 35.8439C77.0742 39.7997 79.9418 41.4528 83.3339 41.4384C86.2733 41.4384 87.9191 40.2906 88.99 38.7819V41.0485H94.0351V28.7984C94.0351 23.6948 90.7795 21.8252 86.2015 21.8252C81.6235 21.8252 78.1163 23.8031 77.7929 28.257H82.6943C82.9099 26.6401 83.837 25.6006 85.8781 25.6006C88.2353 25.6006 88.9181 26.8205 88.9181 29.0511V29.8091H86.8052ZM88.9181 32.8987V34.4795C88.9181 36.5657 87.1645 37.8218 84.8719 37.8218C82.9746 37.8218 82.1553 36.9195 82.1553 35.5551C82.1553 33.5483 83.9089 32.8987 86.913 32.8987H88.9181Z" fill="#384050"/>
<path fill-rule="evenodd" clip-rule="evenodd" d="M115.387 15.3643H106.238V41.0556H111.995V31.1371H114.496L120.612 41.0556H126.764L120.001 30.1337C123.005 29.2313 125.262 27.1885 125.262 23.3048V23.1604C125.262 17.8403 121.431 15.3643 115.387 15.3643ZM119.606 23.4853C119.606 25.9685 118.14 27.1885 115.243 27.1885V27.1812H111.988V19.8182H115.243C118.032 19.8182 119.606 20.7205 119.606 23.3409V23.4853Z" fill="#384050"/>
<path fill-rule="evenodd" clip-rule="evenodd" d="M143.473 14H138.032L135.991 19.71H139.75L143.473 14ZM128.553 31.8951V31.6064C128.553 25.6798 132.735 21.8323 138.176 21.8323C143.005 21.8323 147.296 24.6692 147.296 31.3898V32.8263H133.806C133.95 35.952 135.632 37.7495 138.456 37.7495C140.857 37.7495 142.035 36.71 142.359 35.1291H147.26C146.649 39.1932 143.429 41.4527 138.32 41.4527C132.664 41.4527 128.553 37.8938 128.553 31.8951ZM142.251 29.6285C142.071 26.7915 140.641 25.4272 138.176 25.4272C135.847 25.4272 134.281 26.972 133.885 29.6285H142.251Z" fill="#384050"/>
<path fill-rule="evenodd" clip-rule="evenodd" d="M155.59 41.453H150.437C150.933 45.3294 153.692 47.9931 159.736 48.0004C165.888 48.0004 169.575 45.1634 169.611 39.5906V22.273H164.458V25.0738C163.387 23.1681 161.562 21.8398 158.522 21.8398C153.872 21.8398 150.293 25.608 150.293 31.0004V31.253C150.293 36.8186 153.908 40.233 158.45 40.233C161.203 40.233 163.423 38.58 164.458 36.7464V39.5834C164.458 42.5286 162.884 44.1817 159.736 44.1817C157.092 44.1817 155.913 43.1061 155.59 41.453ZM164.602 30.9209V31.1736C164.602 34.3715 162.705 36.3133 159.988 36.3133C157.415 36.3133 155.59 34.3715 155.59 31.2458V30.957C155.59 27.8674 157.199 25.7812 160.096 25.7812C162.92 25.7812 164.602 27.7231 164.602 30.9209Z" fill="#384050"/>
<path fill-rule="evenodd" clip-rule="evenodd" d="M177.243 14.0361C175.597 14.0361 174.311 15.2561 174.311 16.8731C174.311 18.4901 175.597 19.71 177.243 19.71C178.924 19.71 180.211 18.4901 180.211 16.8731C180.211 15.2561 178.924 14.0361 177.243 14.0361ZM179.852 22.2654H174.699V41.0557H179.852V22.2654Z" fill="#384050"/>
<path fill-rule="evenodd" clip-rule="evenodd" d="M183.783 31.57V31.8588C183.783 37.7131 188.038 41.4524 193.622 41.4524C199.242 41.4524 203.497 37.677 203.497 31.7505V31.4618C203.497 25.6074 199.271 21.832 193.658 21.832C188.038 21.832 183.783 25.6796 183.783 31.57ZM198.236 31.5339V31.7866C198.236 35.3454 196.554 37.4966 193.658 37.5038C190.726 37.5038 189.08 35.3526 189.08 31.7577V31.469C189.08 27.8741 190.798 25.7879 193.658 25.7879C196.554 25.7879 198.236 27.939 198.236 31.5339Z" fill="#384050"/>
<path d="M207.435 22.2652H212.624V25.2465C213.551 23.3768 215.592 21.832 218.704 21.832C222.391 21.832 224.999 24.0626 224.999 29.0868V41.0554H219.811V29.8448C219.811 27.2966 218.812 26.0694 216.519 26.0694C214.298 26.0694 212.617 27.4337 212.617 30.1985V41.0482H207.428V22.2652H207.435Z" fill="#384050"/>
<path fill-rule="evenodd" clip-rule="evenodd" d="M63.8901 50.9619H62.0225L58 62.838H59.3432L60.471 59.4209H65.298L66.4473 62.838H67.8552L63.8901 50.9619ZM64.9173 58.2697H60.8589L62.8845 52.1568L64.9173 58.2697Z" fill="#384050"/>
<path d="M68.8887 59.6469V54.1533H70.2463V59.5813C70.2463 61.1114 70.8856 61.789 72.2288 61.789C73.4428 61.789 74.5849 60.973 74.5849 59.4138V54.1533H75.9425V62.8382H74.5849V61.4611C74.1898 62.2771 73.2416 62.9912 71.8697 62.9912C70.1673 62.9839 68.8887 62.0367 68.8887 59.6469Z" fill="#384050"/>
<path d="M77.2148 54.1533H78.6946L81.2302 61.4393L83.7371 54.1533H85.145L82.0634 62.8382H80.3323L77.2148 54.1533Z" fill="#384050"/>
<path fill-rule="evenodd" clip-rule="evenodd" d="M85.5391 58.4517V58.5829C85.5391 61.2568 87.2558 62.9836 89.6837 62.9909C91.616 62.9909 93.0382 62.0728 93.3327 60.3315H91.9751C91.7955 61.3442 91.027 61.8397 89.6981 61.8397C87.9454 61.8397 87.0116 60.7395 86.947 58.765H93.3974V58.3206C93.3974 55.2095 91.5298 54 89.5472 54C87.1912 54 85.5391 55.8288 85.5391 58.4517ZM89.5472 55.1512C90.9551 55.1512 91.8746 55.8652 92.0039 57.6575H86.99C87.2199 56.1129 88.1537 55.1512 89.5472 55.1512Z" fill="#384050"/>
<path d="M95.0801 54.153H96.4377V55.7122C96.9764 54.7359 97.7163 54.051 99.2535 54V55.2969C97.5367 55.377 96.4377 55.9308 96.4377 58.0728V62.8379H95.0801V54.153Z" fill="#384050"/>
<path fill-rule="evenodd" clip-rule="evenodd" d="M101.416 63.3333H100.022C100.252 64.7978 101.365 66.0072 103.908 66C106.3 66 107.988 64.7686 108.002 62.2477V54.1457H106.645V55.5446C106.149 54.6995 105.266 54 103.843 54C101.487 54 99.8496 55.9599 99.8496 58.3206V58.4371C99.8496 60.8269 101.502 62.5537 103.743 62.5537C104.986 62.5537 106.149 61.7522 106.638 60.9071V62.1675C106.638 64.0255 105.575 64.8415 103.887 64.8415C102.428 64.8415 101.609 64.3315 101.416 63.3333ZM106.681 58.2186V58.3351C106.681 60.2805 105.474 61.4098 103.887 61.4025C102.443 61.4025 101.25 60.2732 101.25 58.3789V58.2477C101.25 56.4189 102.263 55.1439 103.966 55.1439C105.632 55.1439 106.681 56.2732 106.681 58.2186Z" fill="#384050"/>
<path d="M110.17 54.153H111.528V55.53C111.923 54.714 112.871 54 114.279 54C116.046 54 117.288 54.9763 117.288 57.5045V62.8379H115.931V57.4098C115.931 55.8798 115.291 55.2022 113.92 55.2022C112.662 55.2022 111.528 56.0182 111.528 57.5774V62.8451H110.17V54.153Z" fill="#384050"/>
<path fill-rule="evenodd" clip-rule="evenodd" d="M118.891 58.4517V58.5829C118.891 61.2568 120.615 62.9836 123.035 62.9909C124.968 62.9909 126.39 62.0728 126.684 60.3315H125.327C125.147 61.3442 124.379 61.8397 123.05 61.8397C121.297 61.8397 120.363 60.7395 120.299 58.765H126.749V58.3206C126.749 55.2095 124.881 54 122.899 54C120.543 54 118.891 55.8288 118.891 58.4517ZM122.906 55.1512C124.314 55.1512 125.233 55.8652 125.363 57.6575H120.349C120.579 56.1129 121.512 55.1512 122.906 55.1512Z" fill="#384050"/>
<rect x="128.381" y="57.6211" width="3.50536" height="1.2969" fill="#384050"/>
<path fill-rule="evenodd" clip-rule="evenodd" d="M137.733 50.9619H134.221V62.8307H135.643V57.665H137.446L140.93 62.8307H142.517L138.933 57.5703C140.535 57.257 141.828 56.2952 141.828 54.3353V54.2697C141.828 51.8945 139.974 50.9619 137.733 50.9619ZM140.405 54.3353C140.405 55.7998 139.5 56.5284 137.834 56.5284H135.643V52.1277H137.834C139.421 52.1277 140.405 52.6595 140.405 54.2697V54.3353Z" fill="#384050"/>
<path d="M143.91 50H145.268V55.53C145.663 54.714 146.611 54 148.019 54C149.786 54 151.029 54.9763 151.029 57.5045V62.8378H149.671V57.4098C149.671 55.8798 149.032 55.2022 147.66 55.2022C146.403 55.2022 145.268 56.0182 145.268 57.5774V62.8378H143.91V50Z" fill="#384050"/>
<path fill-rule="evenodd" clip-rule="evenodd" d="M157.428 50.2695H156.2L154.433 52.6593H155.395L156.789 51.4134L158.182 52.6593H159.181L157.428 50.2695ZM152.594 58.5682V58.4371C152.594 55.8287 154.375 53.9999 156.803 53.9999C159.224 53.9999 161.012 55.8068 161.012 58.4152V58.5464C161.012 61.1693 159.231 62.9762 156.789 62.9762C154.346 62.9835 152.594 61.111 152.594 58.5682ZM159.604 58.5682V58.4516C159.604 56.4407 158.505 55.1438 156.803 55.1438C155.086 55.1438 154.002 56.4407 154.002 58.4298V58.5609C154.002 60.5354 155.065 61.8323 156.803 61.8323C158.52 61.8396 159.604 60.5281 159.604 58.5682Z" fill="#384050"/>
<path d="M162.672 54.153H164.029V55.53C164.425 54.714 165.373 54 166.781 54C168.548 54 169.79 54.9763 169.79 57.5045V62.8379H168.433V57.4098C168.433 55.8798 167.793 55.2022 166.421 55.2022C165.164 55.2022 164.029 56.0182 164.029 57.5774V62.8451H162.672V54.153Z" fill="#384050"/>
<path fill-rule="evenodd" clip-rule="evenodd" d="M171.393 58.4517V58.5829C171.393 61.2568 173.117 62.9836 175.537 62.9909C177.469 62.9909 178.892 62.0728 179.186 60.3315H177.829C177.649 61.3442 176.88 61.8397 175.552 61.8397C173.799 61.8397 172.865 60.7395 172.8 58.765H179.251V58.3206C179.251 55.2095 177.383 54 175.401 54C173.045 54 171.393 55.8288 171.393 58.4517ZM175.408 55.1512C176.816 55.1512 177.735 55.8652 177.865 57.6575H172.851C173.081 56.1129 174.014 55.1512 175.408 55.1512Z" fill="#384050"/>
<rect x="180.881" y="57.6211" width="3.50536" height="1.2969" fill="#384050"/>
<path fill-rule="evenodd" clip-rule="evenodd" d="M191.347 50.9619H189.48L185.457 62.838H186.8L187.928 59.4209H192.755L193.904 62.838H195.312L191.347 50.9619ZM192.374 58.2697H188.316L190.342 52.1568L192.374 58.2697Z" fill="#384050"/>
<rect x="196.748" y="50" width="1.37197" height="12.8378" fill="#384050"/>
<path fill-rule="evenodd" clip-rule="evenodd" d="M201.662 54.1526H200.305V65.8538H201.662V61.4021C202.151 62.2691 203.149 62.9831 204.557 62.9831C206.913 62.9831 208.45 61.1616 208.45 58.5023V58.3711C208.45 55.668 206.798 54.0068 204.557 54.0068C203.314 54.0068 202.151 54.7719 201.662 55.617V54.1526ZM204.413 55.1507C205.857 55.1507 207.05 56.2436 207.05 58.4367V58.5678C207.05 60.6808 206.13 61.8392 204.428 61.8392C202.761 61.8392 201.612 60.7901 201.612 58.5678V58.4367C201.612 56.2145 202.826 55.1507 204.413 55.1507Z" fill="#384050"/>
<path fill-rule="evenodd" clip-rule="evenodd" d="M209.6 58.4517V58.5829C209.6 61.2568 211.316 62.9836 213.744 62.9909C215.677 62.9909 217.099 62.0728 217.393 60.3315H216.036C215.856 61.3442 215.088 61.8397 213.759 61.8397C212.006 61.8397 211.072 60.7395 211.007 58.765H217.458V58.3206C217.458 55.2095 215.59 54 213.608 54C211.252 54 209.6 55.8288 209.6 58.4517ZM213.608 55.1512C215.016 55.1512 215.935 55.8652 216.064 57.6575H211.051C211.28 56.1129 212.214 55.1512 213.608 55.1512Z" fill="#384050"/>
<path d="M218.506 60.1639H219.835C219.935 61.1912 220.474 61.8397 221.846 61.8397C223.139 61.8397 223.714 61.3879 223.714 60.4626C223.714 59.5519 223.046 59.2532 221.717 58.9982C219.49 58.5829 218.736 57.949 218.736 56.4408C218.736 54.8306 220.287 54 221.631 54C223.168 54 224.497 54.6339 224.726 56.5064H223.419C223.225 55.5592 222.701 55.1439 221.616 55.1439C220.632 55.1439 219.993 55.6393 219.993 56.3898C219.993 57.1694 220.417 57.4827 221.99 57.7668C223.757 58.102 224.999 58.4954 224.999 60.3388C224.999 61.9125 223.936 62.9763 221.853 62.9763C219.82 62.9836 218.592 61.9417 218.506 60.1639Z" fill="#384050"/>
<path d="M48 39C48 52.2586 37.2514 63 24 63C10.7414 63 0 52.2586 0 39C0 25.7414 10.7486 15 24 15C37.2586 15 48 25.7414 48 39Z" fill="#009CDD"/>
<path d="M27.7107 25.1123H25.4105L20 34.4071L22.2857 35.7452L26.5606 28.4107L35.2405 43.2968L37.5335 41.9731L27.7107 25.1123Z" fill="white"/>
<rect x="14.7188" y="46.0303" width="24.2025" height="2.64738" fill="white"/>
<path d="M27.3489 36.3887C25.9818 38.0089 23.942 39.0433 21.6563 39.0433C19.5225 39.0433 17.5985 38.1464 16.2458 36.7069H16.2169H13.8878L13.7938 36.8733L7.68164 47.3398L9.96736 48.678L14.4086 41.0758H14.3941L15.3417 39.4556C17.0704 40.8516 19.2693 41.6907 21.6636 41.6907C24.7232 41.6907 27.4646 40.3236 29.3164 38.1681L27.3489 36.3887Z" fill="white"/>
</svg>
