<svg width="397" height="198" viewBox="0 0 397 198" fill="none" xmlns="http://www.w3.org/2000/svg">
<g clip-path="url(#clip0_8426_171976)">
<path d="M82.2395 0H63.9395V80.64H82.2395V0Z" fill="#012169"/>
<path d="M133.074 0C105.42 0 91.5938 13.44 91.5938 39.9127C91.5938 66.7927 105.014 80.64 131.04 80.64C136.734 80.64 142.427 79.8255 147.714 77.7891V78.1964C147.714 87.9709 141.207 92.8582 127.787 92.8582C118.434 92.8582 109.894 91.6364 102.574 89.1927L100.134 88.7854V104.262L101.76 104.669C109.487 107.113 118.434 108.335 128.194 108.335C153.814 108.335 166.42 98.1527 166.42 78.6036V3.66545L164.794 3.25818C154.627 1.22182 144.054 0 133.074 0ZM131.447 64.7564C116.807 64.7564 109.894 57.0182 109.894 39.9127C109.894 23.6218 117.214 15.8836 132.667 15.8836C138.767 15.8836 143.647 16.2909 148.12 17.1055V61.4982C143.24 63.9418 137.547 64.7564 131.447 64.7564Z" fill="#012169"/>
<path d="M212.78 0C187.16 0 174.554 13.44 174.554 39.5055C174.554 66.7927 188.787 80.64 217.254 80.64C227.42 80.64 235.96 79.8255 243.28 77.7891L244.907 77.3818V61.9055L242.06 62.72C235.554 64.7564 227.42 65.5709 218.88 65.5709C202.207 65.5709 193.667 59.4618 192.854 46.4291H247.754L248.16 44.3927C248.567 40.7273 248.974 37.4691 248.974 34.2109C248.567 11.8109 236.367 0 212.78 0ZM192.854 30.9527C194.48 20.3636 200.58 15.4764 212.78 15.4764C224.167 15.4764 229.86 20.3636 230.674 30.9527H192.854Z" fill="#012169"/>
<path d="M291.673 32.1745H280.287C273.373 32.1745 270.12 29.7309 270.12 24.0291C270.12 21.9927 270.12 15.4764 287.607 15.4764C296.553 15.4764 305.907 17.1055 314.853 19.5491L317.7 20.3636V4.07273L316.073 3.66545C306.72 1.22182 296.96 0 287.607 0C264.427 0 252.633 8.14545 252.633 24.0291C252.633 40.32 262.393 48.8727 280.287 48.8727H291.673C301.433 48.8727 302.653 53.3527 302.653 57.0182C302.653 59.0545 302.653 65.5709 285.98 65.5709C276.627 65.5709 267.68 63.9418 258.733 61.4982L255.887 60.6836V76.9745L257.513 77.3818C266.867 79.8254 276.627 81.0473 285.98 81.0473C309.16 81.0473 320.953 72.9018 320.953 57.0182C320.953 40.32 311.193 32.1745 291.673 32.1745Z" fill="#012169"/>
<path d="M358.773 0C350.64 0 342.1 1.22182 333.153 3.66545L331.527 4.07273V19.5491L334.373 18.7345C342.507 16.2909 350.64 15.0691 358.773 15.0691C375.853 15.0691 377.887 21.1782 377.887 26.0655V30.5455C371.787 29.7309 365.687 29.3236 359.587 29.3236C336.813 29.3236 325.427 37.8764 325.427 54.9818C325.427 71.68 335.593 80.2327 355.52 80.2327C364.467 80.2327 372.6 77.7891 380.327 73.3091L384.8 80.2327H396.187V26.0655C396.187 8.96 383.58 0 358.773 0ZM377.887 46.4291V59.0545C371.787 63.1273 364.467 65.5709 355.927 65.5709C347.793 65.5709 343.727 62.3127 343.727 55.3891C343.727 50.9091 345.353 45.2073 359.587 45.2073C365.687 45.2073 371.787 45.6145 377.887 46.4291Z" fill="#012169"/>
<path d="M1.72035 43.1709C16.767 76.16 36.6937 104.669 61.907 126.662C86.7137 148.655 116.4 164.538 148.12 172.684C179.84 180.829 213.187 182.051 245.72 175.127C278.254 168.204 309.974 153.542 339.254 132.364L340.88 133.585C328.68 147.025 314.854 158.429 299.807 168.204C284.354 177.571 267.68 185.309 250.6 190.196C216.034 200.378 178.62 200.785 143.647 191.825C108.267 182.051 75.7337 163.316 50.927 137.251C38.3203 124.625 27.3403 109.964 18.8003 94.08C10.2603 78.1964 3.75368 61.0909 -0.312988 43.5782L1.72035 43.1709Z" fill="#012169"/>
</g>
<defs>
<clipPath id="clip0_8426_171976">
<rect width="397" height="198" fill="white"/>
</clipPath>
</defs>
</svg>
