<svg width="32" height="32" viewBox="0 0 32 32" fill="none" xmlns="http://www.w3.org/2000/svg">
<path d="M30.7096 16.0011C30.6845 21.4585 22.0998 26.1302 17.9809 28.0581C16.6071 28.7012 15.0456 28.7012 13.6777 28.0581C9.57651 26.1302 1.03477 21.4585 1.05986 16.0011C1.08495 10.5436 9.66964 5.87191 13.7886 3.94397C15.1624 3.30093 16.7238 3.30093 18.0917 3.94397C22.1929 5.87191 30.7347 10.5436 30.7096 16.0011Z" fill="#A72116"/>
<path d="M25.5413 16.001C25.5382 16.6645 25.258 17.4061 24.645 18.2286C24.0326 19.0501 23.1543 19.8611 22.1315 20.6258C20.0857 22.1552 17.6775 23.3414 16.3121 23.955C16.0128 24.0895 15.6821 24.0895 15.384 23.955C14.0243 23.3414 11.627 22.1552 9.59523 20.6258C8.57941 19.8611 7.70859 19.0501 7.1038 18.2286C6.49833 17.4061 6.22492 16.6645 6.22797 16.001C6.23102 15.3376 6.51125 14.5959 7.12428 13.7735C7.73662 12.952 8.6149 12.141 9.63775 11.3763C11.6836 9.84683 14.0918 8.66066 15.4571 8.0471C15.7564 7.91261 16.0872 7.91261 16.3852 8.0471C17.745 8.66066 20.1422 9.84683 22.174 11.3763C23.1898 12.141 24.0606 12.952 24.6654 13.7735C25.2709 14.5959 25.5443 15.3376 25.5413 16.001Z" fill="#A72116" stroke="#0D4362" stroke-width="3" stroke-miterlimit="10"/>
</svg>
