<svg width="71" height="60" viewBox="0 0 71 60" fill="none" xmlns="http://www.w3.org/2000/svg">
<path fill-rule="evenodd" clip-rule="evenodd" d="M35.9226 59.5682C40.8344 57.5321 69.4882 45.0065 69.5579 29.8567C69.6275 14.7069 41.0889 2.18122 36.1958 0.145191C35.7306 -0.0483965 35.2409 -0.0483972 34.7739 0.14519C29.8621 2.18122 1.20827 14.7069 1.13863 29.8567C1.06898 45.0065 29.6076 57.5321 34.5007 59.5682C34.9659 59.7617 35.4556 59.7617 35.9226 59.5682ZM60.6477 29.8567C60.6375 32.0719 59.5524 34.4643 57.4137 36.9911C55.2903 39.4998 52.3467 41.8777 49.1692 43.9975C43.5843 47.7233 37.6631 50.3998 35.2492 51.4276C32.8446 50.3998 26.9481 47.7233 21.3974 43.9975C18.2394 41.8777 15.3177 39.4998 13.2174 36.9911C11.1019 34.4643 10.0387 32.0719 10.0489 29.8567C10.0591 27.6415 11.1443 25.2491 13.283 22.7223C15.4063 20.2136 18.3499 17.8357 21.5274 15.7159C27.1123 11.9901 33.0335 9.31355 35.4475 8.28579C37.852 9.31355 43.7486 11.9901 49.2992 15.7159C52.4573 17.8357 55.379 20.2136 57.4792 22.7223C59.5947 25.2491 60.6579 27.6415 60.6477 29.8567ZM63.6477 29.8567C63.5889 42.6556 38.868 53.1904 35.5913 54.5307C35.3574 54.6264 35.1115 54.6264 34.8784 54.5307C31.6141 53.1904 6.99009 42.6556 7.04893 29.8567C7.10777 17.0578 31.8286 6.52296 35.1053 5.18273C35.3392 5.08703 35.5851 5.08703 35.8182 5.18273C39.0825 6.52296 63.7065 17.0578 63.6477 29.8567Z" fill="#A72116"/>
</svg>
