<?xml version="1.0" encoding="UTF-8"?>
<svg width="50px" height="43px" viewBox="0 0 50 43" version="1.1" xmlns="http://www.w3.org/2000/svg" xmlns:xlink="http://www.w3.org/1999/xlink">
    <!-- Generator: Sketch 63.1 (92452) - https://sketch.com -->
    <title>Group 14</title>
    <desc>Created with Sketch.</desc>
    <g id="Visuels" stroke="none" stroke-width="1" fill="none" fill-rule="evenodd">
        <g id="Group-14" fill-rule="nonzero">
            <polygon id="Path-Copy" fill="#FC0D1A" points="50 43 35.7324075 0 0 35.291999"></polygon>
            <path d="M33.4647793,31 L36.3544219,31 L36.3544219,22 L33.4647793,22 L33.4647793,31 Z M26.3116748,22 L22.73822,31 L25.9595235,31 L26.4841766,29.5189106 L29.2651717,29.5189106 L29.7903013,31 L33.0111282,31 L29.43815,22 L26.3121514,22 L26.3116748,22 Z M27.0059706,27.4306611 L27.8680028,24.5767491 L28.7424247,27.4306611 L27.0059706,27.4306611 Z M11,31 L13.8057744,31 L13.8057744,25.9331152 L15.7275964,29.6423347 L17.5560196,29.6423347 L19.4783181,25.9331152 L19.4783181,31 L22.283616,31 L22.283616,22 L18.9184022,22 L16.6835039,26.3908671 L14.4428872,22 L11,22 L11,31 Z M37.4499509,22 L37.4499509,31 L40.339117,31 L40.339117,27.5441247 L43.9802383,27.5441247 L44.369082,25.4065056 L40.339117,25.4065056 L40.339117,24.1376191 L44.6168746,24.1376191 L45,22 L37.4499509,22 Z" id="Shape-Copy" fill="#FFFFFF"></path>
        </g>
    </g>
</svg>