<svg width="157" height="99" viewBox="0 0 157 99" fill="none" xmlns="http://www.w3.org/2000/svg">
<path d="M129.382 81.2468H129.933L129.492 80.1105C129.96 80.0551 130.373 79.8611 130.566 79.3623C130.814 78.6694 130.538 78.1705 129.437 78.1705H128.225L127.124 81.2468H127.674L128.06 80.166H128.996L129.382 81.2468ZM129.299 78.5585C130.07 78.5585 130.208 78.7525 130.015 79.2514C129.878 79.6671 129.602 79.7503 128.914 79.7503H128.17L128.611 78.5308H129.299V78.5585ZM124.012 81.2468H126.545L126.683 80.8588H124.673L125.003 79.9165H126.793L126.931 79.5285H125.141L125.471 78.5863H127.482L127.619 78.1983H125.086L124.012 81.2468ZM124.149 78.7248L124.287 78.3091C123.984 78.1983 123.599 78.1151 123.186 78.1151C122.277 78.1151 121.506 78.4477 121.12 79.5285C120.735 80.6094 121.258 81.3023 122.415 81.3023C122.745 81.3023 123.075 81.2746 123.378 81.1914L123.544 80.7757C123.213 80.8866 122.91 80.8865 122.58 80.8865C121.726 80.8865 121.368 80.4708 121.643 79.6394C121.919 78.7803 122.552 78.5308 123.186 78.5308C123.571 78.5308 123.902 78.614 124.149 78.7248ZM119.11 81.2468H119.853L120.955 78.1705H120.432L119.468 80.8588L118.642 78.3923C118.614 78.226 118.504 78.1983 118.339 78.1983H117.871L116.769 81.2745H117.265L118.229 78.614L119.11 81.2468ZM115.915 81.2468H116.439L116.246 78.1705H115.668C115.502 78.1705 115.392 78.226 115.31 78.3645L113.134 81.2468H113.712L114.263 80.4708H115.888L115.915 81.2468ZM115.833 80.0828H114.538L115.75 78.4477L115.833 80.0828ZM111.399 81.2468H111.977C112.088 81.2468 112.198 81.1914 112.308 81.0528L114.483 78.1705H113.85L111.867 80.8865L111.702 78.1705H111.179L111.399 81.2468ZM110.077 81.2468H110.6L110.408 78.1705H109.829C109.664 78.1705 109.554 78.226 109.471 78.3645L107.296 81.2468H107.874L108.425 80.4708H110.05L110.077 81.2468ZM109.995 80.0828H108.7L109.912 78.4477L109.995 80.0828ZM107.599 79.2514L108.452 78.1705H107.874L107.186 79.2514H107.599ZM103.082 81.2468H104.597C105.699 81.2468 106.277 80.8034 106.607 79.8334C106.938 78.9465 106.607 78.1705 105.451 78.1705H104.184L103.082 81.2468ZM105.423 78.5863C106.112 78.5863 106.359 79.0574 106.112 79.7503C105.836 80.554 105.423 80.8311 104.625 80.8311H103.771L104.597 78.5585H105.423V78.5863ZM100.301 81.2468H101.044L102.146 78.1705H101.623L100.659 80.8588L99.8328 78.3923C99.8052 78.226 99.6951 78.1983 99.5298 78.1983H99.0617L97.9601 81.2745H98.4558L99.4197 78.614L100.301 81.2468ZM95.8947 80.8865C95.0135 80.8865 94.7932 80.4154 95.0686 79.6671C95.3715 78.808 95.8121 78.5585 96.5281 78.5585C97.4094 78.5585 97.6297 79.0297 97.3543 79.778C97.0514 80.6094 96.6107 80.8865 95.8947 80.8865ZM95.8672 81.3023C96.9137 81.3023 97.5195 80.8311 97.8775 79.8334C98.208 78.9188 97.9326 78.1151 96.5832 78.1151C95.5367 78.1151 94.9309 78.5863 94.5729 79.584C94.2149 80.4985 94.5178 81.3023 95.8672 81.3023ZM92.2045 82.1891C92.535 82.1891 92.7278 82.0783 92.7829 81.8843C92.8655 81.6626 92.8104 81.524 92.6727 81.3023H92.7002C93.0307 81.3023 93.3612 81.2746 93.6641 81.1914L93.8293 80.7757C93.4989 80.8866 93.1959 80.8865 92.8655 80.8865C92.0118 80.8865 91.6538 80.4708 91.9292 79.6394C92.2045 78.7803 92.8379 78.5308 93.4713 78.5308C93.8569 78.5308 94.1873 78.614 94.4352 78.7248L94.5729 78.3091C94.2699 78.1983 93.8844 78.1151 93.4713 78.1151C92.5625 78.1151 91.7915 78.4477 91.4059 79.5285C91.0755 80.4431 91.4059 81.1083 92.2596 81.2745C92.4249 81.4963 92.4799 81.6348 92.4249 81.7457C92.3973 81.8566 92.3147 81.8843 92.1495 81.8843C92.0118 81.8843 91.8465 81.8288 91.7364 81.8011L91.6538 82.0783C91.7639 82.1337 91.9842 82.1891 92.2045 82.1891ZM90.3044 81.2468H90.8276L90.6348 78.1705H90.0565C89.8913 78.1705 89.7811 78.226 89.6985 78.3645L87.523 81.2468H88.1013L88.652 80.4708H90.2768L90.3044 81.2468ZM90.2218 80.0828H88.9274L90.1391 78.4477L90.2218 80.0828ZM87.8259 80.0828L87.9636 79.6671H86.146L86.5316 78.5585H88.5419L88.6796 78.1428H86.146L85.0445 81.2191H85.5952L86.0083 80.0551H87.8259V80.0828ZM80.8035 81.2468H83.3371L83.4748 80.8588H81.4644L81.7949 79.9165H83.5849L83.7226 79.5285H81.9326L82.2631 78.5863H84.2734L84.4111 78.1983H81.8775L80.8035 81.2468ZM79.6193 81.2468H80.1701L79.7295 80.1105C80.1977 80.0551 80.6107 79.8611 80.8035 79.3623C81.0514 78.6694 80.776 78.1705 79.6744 78.1705H78.4627L77.3612 81.2468H77.9119L78.2975 80.166H79.2338L79.6193 81.2468ZM79.5643 78.5585C80.3354 78.5585 80.473 78.7525 80.2803 79.2514C80.1426 79.6671 79.8672 79.7503 79.1787 79.7503H78.4352L78.8758 78.5308H79.5643V78.5585ZM77.7192 78.1705H77.1684L76.5075 79.9997C76.2321 80.748 75.8741 80.8865 75.3508 80.8865C74.6624 80.8865 74.4421 80.6371 74.6624 79.9997L75.3233 78.1705H74.7725L74.1116 79.9997C73.8362 80.7203 74.1391 81.3023 75.2407 81.3023C76.1495 81.3023 76.6452 81.0251 77.0307 80.0274L77.7192 78.1705ZM70.6417 81.2468H73.1753L73.313 80.8588H71.3027L71.6331 79.9165H73.4231L73.5608 79.5285H71.7708L72.1013 78.5863H74.1116L74.2493 78.1983H71.7157L70.6417 81.2468ZM67.6675 81.2468H70.1736L70.3113 80.8311H68.356L69.3199 78.1705H68.7691L67.6675 81.2468ZM64.7209 81.2468H67.2269L67.3646 80.8311H65.4094L66.3732 78.1705H65.8224L64.7209 81.2468ZM63.8672 81.2468L64.9687 78.1705H64.418L63.3164 81.2468H63.8672ZM60.2045 81.2468H62.7381L62.8758 80.8588H60.8655L61.1959 79.9165H62.986L63.1236 79.5285H61.3336L61.6641 78.5863H63.6744L63.8121 78.1983H61.2786L60.2045 81.2468ZM57.0651 81.2468H57.6434L59.7915 78.5863L58.8276 81.2468H59.3784L60.4799 78.1705H59.5987L57.5333 80.7757L57.313 78.4754C57.2854 78.2537 57.2028 78.1705 56.9825 78.1705H56.4868L55.3853 81.2468H55.881L56.8448 78.5585L57.0651 81.2468ZM51.1168 81.2468H53.6503L53.788 80.8588H51.7777L52.1082 79.9165H53.8982L54.0359 79.5285H52.2459L52.5763 78.5863H54.5866L54.7243 78.1983H52.1908L51.1168 81.2468ZM49.4644 81.2468H50.208L51.3095 78.1705H50.7863L49.8224 80.8588L48.9963 78.3923C48.9687 78.226 48.8586 78.1983 48.6934 78.1983H48.2252L47.1236 81.2745H47.6193L48.5832 78.614L49.4644 81.2468ZM47.4541 78.1705H46.9033L46.2424 79.9997C45.967 80.748 45.609 80.8865 45.0858 80.8865C44.3973 80.8865 44.177 80.6371 44.3973 79.9997L45.0582 78.1705H44.5075L43.8465 79.9997C43.5712 80.7203 43.8741 81.3023 44.9756 81.3023C45.8844 81.3023 46.3801 81.0251 46.7656 80.0274L47.4541 78.1705Z" fill="#27509B"/>
<path d="M61.9123 71.4082C61.6644 71.4636 59.7367 71.8239 57.7264 71.8793C54.1188 71.9902 50.9519 70.5213 50.9243 67.8885C50.8692 63.3433 55.4407 60.849 58.8279 60.1562C60.3426 59.8513 63.2617 59.491 66.1532 60.2116L64.4734 64.2856C63.9777 63.177 62.7384 63.1493 62.2427 63.1493C61.0035 63.1216 59.9846 63.4542 59.241 63.7867C57.5336 64.5627 56.0465 67.0848 58.4699 68.0548C59.8193 68.5813 61.4992 68.1656 63.2892 67.8885L61.9123 71.4082Z" fill="#27509B"/>
<path d="M132.384 60.0453L129.492 67.9716C129.52 67.1679 129.685 64.0084 129.795 62.207C129.823 61.4587 129.685 60.8767 129.327 60.5164C128.886 60.0453 128.336 60.0453 128.308 60.0453H121.836L117.623 71.6022H122.332L125.334 63.3987L124.976 71.6022H132.852L137.093 60.0453H132.384Z" fill="#27509B"/>
<path d="M108.149 67.7776H102.697L105.533 60.0453H100.108L95.8672 71.6299H106.745L108.149 67.7776Z" fill="#27509B"/>
<path d="M95.9774 63.0662L97.1064 60.0453H85.4851L81.2441 71.6299H93.0032L94.1323 68.4982H87.6607L88.1288 67.2233H94.1873L95.2063 64.3687H89.1753L89.6159 63.0662H95.9774Z" fill="#27509B"/>
<path d="M78.1045 71.6299L82.3455 60.0453H77.058L75.5159 64.2024H72.7069L74.2491 60.0453H68.9341L64.7207 71.6299H70.0081L71.4402 67.6945H74.2491L72.8171 71.6299H78.1045Z" fill="#27509B"/>
<path d="M46.8763 71.6299L51.1173 60.0453H45.5269L41.3135 71.6299H46.8763Z" fill="#27509B"/>
<path d="M38.1734 71.6299L42.4144 60.073H34.5383L30.4626 66.281C30.4626 66.281 30.7104 63.0384 30.793 62.2347C30.8481 61.6527 30.7655 60.0453 29.3335 60.0453H22.8894L18.6484 71.6022H23.688L26.7448 63.2602L26.1114 71.6299H30.6002L36.108 63.3987L33.1063 71.6299H38.1734Z" fill="#27509B"/>
<path d="M114.429 71.6299L118.67 60.0453H113.107L108.866 71.6299H114.429Z" fill="#27509B"/>
<path d="M25.3404 53.3107L24.2939 56.193H138.442L139.488 53.3107H25.3404Z" fill="#27509B"/>
<path d="M79.7021 53.3107C79.7847 53.283 79.8674 53.2553 79.95 53.2276C79.95 53.2276 80.0877 53.1721 80.1428 53.1721C80.9689 52.895 82.814 51.925 83.5025 50.567C84.9069 50.0404 85.9259 49.3198 86.5593 48.4607C87.771 48.239 88.7073 47.7124 89.2305 47.4352C90.4422 46.7424 91.2959 46.0772 91.8192 45.3567C92.2598 44.7747 92.5352 44.3312 92.7555 43.8601C93.1686 43.6384 93.6367 43.3612 94.2426 42.9455C96.3631 41.5321 96.8037 38.9269 96.8588 38.6221C96.8588 38.5666 96.8863 38.4835 96.8863 38.4281C96.9965 38.4281 97.1066 38.4281 97.2168 38.4281C99.3372 38.4281 102.119 37.0978 103.606 36.3495H103.633C103.854 36.2386 104.074 36.1278 104.157 36.1001C104.652 35.8784 105.671 35.3241 106.718 34.6312C108.067 33.7166 108.976 32.8852 109.471 32.1092C109.554 31.9983 109.609 31.8598 109.664 31.7212L110.546 31.1669C110.793 31.0006 111.014 30.7789 111.151 30.5018C111.399 30.3632 111.592 30.2523 111.647 30.1969C112.336 29.7535 112.638 28.9775 112.391 28.2292V28.2015C112.17 27.5363 111.564 26.7326 110.546 26.4832C110.188 25.7072 109.416 25.2637 108.563 25.2637C108.37 25.2637 108.205 25.2915 108.095 25.3192C108.039 25.3192 107.819 25.3746 106.167 25.7903L103.716 26.3723C103.936 25.7626 103.909 25.0975 103.633 24.5432C103.303 23.8503 102.614 23.4069 101.898 23.4069C101.651 23.4069 101.403 23.4623 101.182 23.5732H101.155C101.072 23.6286 100.879 23.7117 96.5008 26.5663C96.4457 26.594 96.3906 26.6495 96.3355 26.6772C94.215 28.534 93.444 29.6426 93.2512 29.9198C93.141 30.0583 92.9758 30.3355 92.8106 30.6958C92.7004 30.6403 92.5903 30.5849 92.4801 30.5295C91.5989 30.1415 90.6901 29.9475 89.7538 29.9475C88.0739 29.9475 86.8897 30.6126 86.5868 30.8066C86.4216 30.8898 85.7882 31.2778 84.8519 32.0261C84.4663 32.3309 84.1359 32.6635 83.8329 33.0515C83.1996 33.1901 82.6763 33.3841 82.2908 33.5781C81.7951 33.8275 81.3269 34.2155 80.8037 34.6312L80.7761 34.6589C80.6935 34.7421 80.6109 34.7975 80.5008 34.8806C80.2804 35.0469 79.7021 35.5181 79.1514 36.2941H79.0963C79.0137 36.3218 78.3252 36.4604 77.444 36.8761C77.2236 36.9869 77.0033 37.0978 76.8106 37.2364C76.3149 37.2641 75.5438 37.3472 74.5248 37.6521H74.4698C74.3872 37.6244 73.6161 37.4858 72.6798 37.4858C72.2667 37.4858 71.8811 37.5135 71.5507 37.5689C71.3304 37.5966 70.5317 37.7352 69.8708 37.9292C69.5403 38.0124 68.7417 38.2895 67.8054 38.8992C65.7951 38.4281 63.7847 38.2895 62.518 38.2341C63.7297 36.5989 64.308 34.7143 64.1152 33.1069C63.7297 30.0583 61.6918 28.2569 60.9483 27.7303C59.6815 22.4092 55.9913 20.1366 52.962 19.804C52.3562 19.1112 51.2271 18.6677 49.9328 18.6677C49.4095 18.6677 48.9138 18.7232 48.4181 18.8617C46.7934 19.3052 45.499 20.5523 45.2512 21.9103C43.6264 23.2683 41.0928 26.3169 41.8088 31.7766C41.203 32.6081 40.0188 34.7143 40.8175 37.9292C41.3682 40.1187 42.7176 41.6984 44.7555 42.5298C43.1858 43.3058 41.8088 44.2204 40.6522 45.3012C40.5696 45.3567 40.5145 45.4398 40.4594 45.4952C37.7331 45.6338 35.2546 46.7701 33.2994 48.7933C31.8949 50.2344 30.931 51.8973 30.3252 53.3661H79.7021V53.3107Z" fill="black"/>
<path d="M79.6193 51.537C79.041 51.731 78.0496 52.119 76.6726 52.119C76.6175 52.119 76.59 52.119 76.5349 52.119C75.1029 52.0913 73.3955 51.343 72.1838 49.985C70.9446 48.627 70.2836 46.5761 70.4764 44.553C70.6692 42.5298 71.8809 40.8392 73.3404 39.9247C73.6709 39.7029 74.0289 39.5367 74.3869 39.4258C74.5246 39.3704 74.6898 39.3149 74.8275 39.2872C74.8 39.3149 74.7725 39.3704 74.7449 39.3981C73.2578 41.6152 73.368 44.4698 74.084 46.1604C74.4695 47.0473 74.9101 47.7678 75.4334 48.4053C76.1219 49.2367 76.948 49.8741 77.8843 50.2898C78.7656 50.6778 79.6743 50.8718 80.6107 50.8718C80.7208 50.8718 80.8034 50.8718 80.9136 50.8718C80.4454 51.1767 79.9497 51.4261 79.6193 51.537Z" fill="white"/>
<path d="M82.594 49.0704C82.0432 49.2644 81.3548 49.4307 80.5837 49.4307C79.9228 49.4307 79.1792 49.2921 78.4357 48.9596C76.8109 48.239 75.9296 46.8256 75.3789 45.5784C74.8281 44.3036 74.7179 42.031 75.9021 40.2295C76.563 39.2595 77.4993 38.6775 78.2429 38.345C77.7747 39.7584 77.5544 41.9478 79.0966 44.5807V44.6084V44.6361C79.8677 45.8833 80.8866 46.8256 82.0983 47.463C82.8143 47.851 83.5854 48.1004 84.384 48.239C83.8333 48.5716 83.1723 48.8764 82.594 49.0704Z" fill="white"/>
<path d="M88.4041 45.911C87.7432 46.299 86.8344 46.7701 85.6778 46.8255C85.6227 46.8255 85.5676 46.8255 85.5125 46.8255C83.7776 46.8255 81.6846 45.9941 80.3352 43.8047C77.9118 39.7029 80.5555 36.8761 81.4368 36.1832C81.96 35.7675 82.4833 35.3518 82.8963 35.1024C82.7036 35.6566 82.621 36.0724 82.621 36.2109C82.4282 37.2364 82.5934 38.5667 83.0616 39.7584C83.6674 41.3381 84.7139 42.613 86.0908 43.4167C87.2199 44.0818 88.3765 44.4144 89.5607 44.4144C89.8912 44.4144 90.1941 44.3867 90.4419 44.359C89.8636 45.0518 88.9549 45.6061 88.4041 45.911Z" fill="white"/>
<path d="M36.5763 53.3107C36.6865 52.3961 36.9343 51.2876 37.43 50.0958C37.8431 49.0981 38.3388 48.1558 38.9722 47.2967C37.2097 47.657 35.64 48.5438 34.3181 49.9018C33.4094 50.8164 32.6383 51.9804 32.0049 53.283H36.5763V53.3107Z" fill="white"/>
<path d="M67.145 53.3107C66.842 53.0336 66.5942 52.7841 66.3739 52.5624C65.3274 51.4816 64.5012 49.5693 64.2534 48.239C63.8128 46.0773 64.1157 43.971 65.1346 42.0032C65.4651 41.3935 65.8506 40.8115 66.3188 40.3127C64.0331 39.8969 61.8575 39.8692 61.1415 39.8692C61.0589 40.0355 60.9487 40.1741 60.811 40.3127C59.9849 41.0332 59.2964 41.1995 59.7921 40.673C60.2603 40.1187 60.2327 39.5367 60.095 39.3981C59.9849 39.2872 59.7921 39.3704 59.682 39.3981C58.3326 39.8969 58.0847 39.6752 58.3601 39.5089C59.5718 38.7607 60.2603 38.0955 60.6734 37.6798C61.6923 36.5158 62.5184 34.8252 62.3257 33.2732C62.1054 31.4718 61.0864 30.0583 60.04 29.1992C59.9298 29.1161 59.8472 29.0329 59.7921 29.0052C59.7646 28.9775 59.737 28.9498 59.7095 28.9498C59.5443 28.8389 59.324 28.7003 59.1587 28.6449C58.8833 28.5618 58.966 28.3678 59.2689 28.2846C59.2413 28.1461 59.2138 27.9798 59.1863 27.8412C59.1587 27.7026 59.1037 27.564 59.0761 27.4255C57.8644 23.3792 55.0004 21.6609 52.632 21.4115C52.6045 21.4115 52.577 21.4115 52.5494 21.4115C51.9987 21.356 51.6131 21.356 51.5305 21.356C51.145 21.3006 51.3102 21.1343 51.5305 21.0512C51.6131 21.0235 51.6407 20.9403 51.6131 20.8849C51.3377 20.4692 50.0709 20.0812 48.7491 20.4692C48.0606 20.6632 47.4548 21.1066 47.0968 21.55C47.0417 21.6332 46.9866 21.744 46.9315 21.8272C46.9315 21.8549 46.904 21.8826 46.904 21.9103C46.8489 22.0766 47.0417 22.0212 47.0417 22.0212C47.6751 21.8826 47.9505 22.0489 47.4548 22.326C47.1518 22.4923 46.7112 22.7972 46.4083 23.0189C45.6923 23.5732 44.756 24.4878 44.095 25.8735C43.4892 27.1483 43.1863 28.6449 43.2413 30.2523C43.2689 30.4741 43.2689 30.9175 43.2964 31.0561C43.324 31.2224 43.4341 31.3886 43.8197 31.3332C44.3429 31.2778 44.6734 31.1669 44.2052 31.5549C44.0124 31.6935 43.4066 32.2755 43.0486 32.7189C42.3326 33.6335 41.7818 35.3241 42.3326 37.4581C42.8007 39.2872 43.9298 40.5067 45.7198 41.0887C46.7938 41.3935 49.2448 41.8092 51.145 41.6984C51.3377 41.6984 51.3928 41.7261 51.3653 41.8092C51.3377 41.8924 51.2 41.9478 51.0073 41.9755C50.7043 42.031 50.0434 42.1418 48.9143 42.2527C48.6665 42.2804 48.4737 42.4467 48.4462 42.5575V42.5852C48.3085 43.0841 49.3274 43.4998 49.4376 43.5552C49.8231 43.6661 49.6579 43.8878 49.4926 43.9155C48.7766 44.0541 47.4823 43.7492 46.7938 43.6938C46.3257 43.6661 45.9677 43.7492 45.83 43.8324C44.2052 44.553 42.8283 45.4675 41.6992 46.5207C40.4324 47.7124 39.4685 49.1258 38.8351 50.6778C38.4496 51.6478 38.2293 52.5624 38.1191 53.3384H67.145V53.3107Z" fill="white"/>
<path d="M67.42 51.537C68.0258 52.1744 68.7143 52.8396 69.8159 53.3107H74.7728C74.4148 53.1999 74.0293 53.0613 73.6713 52.895C72.7074 52.4516 71.8262 51.7864 71.1377 51.0104C70.3942 50.179 69.8159 49.1536 69.4303 47.9896C69.0723 46.8533 68.9346 45.6061 69.0448 44.4421C69.1549 43.2504 69.568 42.0864 70.2289 41.061C70.6696 40.3404 71.2479 39.7307 71.8813 39.2041C71.8262 39.2041 71.7436 39.2318 71.6885 39.2318C71.6885 39.2318 70.8348 39.3427 70.2289 39.5367C69.6231 39.7307 67.5301 40.5067 66.4286 42.6684C65.2995 44.8301 65.4372 46.7147 65.685 47.9341C65.9054 49.1536 66.6489 50.761 67.42 51.537Z" fill="white"/>
<path d="M110.849 28.9775C110.711 29.0607 110.518 29.1715 110.353 29.2824V29.2547C110.105 28.839 109.775 28.5618 109.361 28.4787C108.728 28.3401 107.929 28.5895 106.883 29.2824C105.341 30.2801 102.945 30.8621 102.917 30.8621C102.752 30.8898 102.642 31.0561 102.697 31.2224C102.725 31.361 102.862 31.4718 103 31.4718C103.028 31.4718 103.055 31.4718 103.083 31.4718C103.193 31.4441 105.616 30.8621 107.241 29.809C108.122 29.227 108.811 28.9775 109.251 29.0884C109.472 29.1438 109.637 29.2547 109.775 29.5041C109.967 29.809 109.802 29.9752 109.775 29.9752C109.747 29.9752 109.003 30.4741 108.673 30.6681C108.508 30.5018 108.177 30.2247 107.682 30.1692C107.131 30.1138 106.552 30.3632 105.974 30.9175C104.57 32.2478 103.055 32.6635 103.028 32.6912C102.862 32.7467 102.78 32.913 102.807 33.0792C102.835 33.2178 102.972 33.301 103.11 33.301C103.138 33.301 103.165 33.301 103.193 33.301C103.248 33.2733 104.873 32.8298 106.387 31.3887C106.828 30.973 107.241 30.779 107.599 30.8067C107.957 30.8344 108.177 31.0838 108.232 31.1392C108.26 31.167 108.315 31.2778 108.232 31.3887C107.379 32.7467 104.404 34.465 103.551 34.8253C102.917 35.1024 100.384 36.4604 98.3184 36.9038C98.0981 36.9593 97.8503 36.987 97.6299 37.0147C97.6024 37.0147 97.5749 37.0147 97.5473 37.0147C97.2444 37.0147 95.8399 37.0424 95.4268 36.6267C94.821 36.017 94.6007 36.4604 94.7934 37.2364C94.1325 37.6244 93.1411 38.2341 92.8933 38.4004C92.2048 38.8161 91.3236 38.345 91.1583 38.345C90.8003 38.345 91.654 39.4258 92.37 39.5367C93.1411 39.6476 94.5731 38.733 94.5731 38.733L95.1239 38.3727C95.1239 38.3727 94.7935 40.479 93.2513 41.5321C92.2874 42.1696 91.8743 42.3913 91.5163 42.5576C91.2685 42.6684 90.5525 43.0564 89.4785 43.0564C88.7074 43.0564 87.7986 42.8624 86.7521 42.2527C84.2461 40.7561 83.7504 37.8184 83.9707 36.5158C83.9707 36.5158 84.2461 34.5758 85.7332 33.4395C86.7246 32.6635 87.3029 32.331 87.3029 32.331C87.3029 32.331 88.2392 31.7212 89.6162 31.7212C90.222 31.7212 90.9105 31.8321 91.6265 32.1647C91.4062 32.331 91.2134 32.4972 91.1033 32.6358C90.8279 33.0792 90.4148 34.0493 90.6902 34.0493C90.8829 34.0493 91.0206 33.5504 91.6816 33.2178C92.012 33.0515 93.5542 32.137 93.5542 32.137C93.5542 32.137 93.6093 31.8875 93.6919 31.749C93.6919 31.749 93.8847 31.3332 94.2702 30.7512C94.2978 30.7235 94.3528 30.6404 94.4354 30.5018C94.6558 30.197 94.9587 29.8367 95.3167 29.5041C95.7298 29.0607 96.3081 28.5064 97.0792 27.8135C97.0792 27.8135 101.375 25.0144 101.568 24.9035C101.596 24.8758 101.651 24.8758 101.678 24.8758C102.036 24.8758 102.559 25.5132 101.926 26.3724C101.403 27.0652 100.797 27.5364 100.329 27.8967C100.191 28.0075 99.9983 28.1184 99.8606 28.1738C99.1996 28.3955 98.3459 28.9221 98.2083 29.0329C98.0706 29.1438 98.0706 29.3378 98.2358 29.2547C98.8141 29.0052 99.7229 28.7835 99.8881 28.7281C100.88 28.5064 108.067 26.7604 108.177 26.7327C108.205 26.7327 108.287 26.7049 108.343 26.7049C108.59 26.7049 109.003 26.7881 109.114 27.3147C109.114 27.3424 109.114 27.3424 109.114 27.3701L102.532 29.3378C102.367 29.3932 102.284 29.5595 102.339 29.7258C102.367 29.8367 102.477 29.9198 102.587 29.9475C102.642 29.9475 102.697 29.9475 102.725 29.9475L108.59 28.2015C108.701 28.1738 108.921 28.1184 109.361 27.9798L109.417 27.9521C109.554 27.9244 109.664 27.8967 109.775 27.8967C110.38 27.8967 110.738 28.3955 110.849 28.7004C111.014 28.8112 110.959 28.8944 110.849 28.9775Z" fill="white"/>
<path d="M50.1531 34.4927C49.7676 34.7698 49.6849 34.9638 49.6299 35.1024C49.5748 35.241 49.5748 35.3795 49.6023 35.435C49.6299 35.4904 49.6023 35.5735 49.5472 35.6012C49.4922 35.629 49.4371 35.6012 49.4096 35.6012C49.382 35.5735 49.3545 35.5458 49.3269 35.5181C49.2168 35.2687 49.3269 34.7144 49.6023 34.465C49.7125 34.3541 49.8502 34.271 49.9879 34.2155C50.0429 34.1878 50.1806 34.1324 50.2633 34.2432C50.2908 34.3541 50.2082 34.465 50.1531 34.4927ZM59.1858 32.719C59.1032 32.7467 59.0756 32.6358 59.0206 32.4972C58.7727 32.8298 58.2219 33.3564 58.1393 33.4672C58.0292 33.6335 57.919 33.7998 57.8089 33.9661C57.6436 34.271 57.5059 34.5481 57.2856 34.8252C57.0102 35.1855 56.6798 35.5181 56.2942 35.7398C55.5507 36.1832 54.6419 36.405 53.7882 36.2664C53.3476 36.1832 52.907 36.017 52.4939 35.823C52.1634 35.6567 51.8054 35.4627 51.4474 35.435C51.0343 35.435 50.5937 35.4627 50.1806 35.4072C50.0429 35.3795 49.9053 35.3241 49.8777 35.1855C49.8226 34.9915 49.9603 34.7698 50.1531 34.7698C50.2082 34.7698 50.2908 34.7975 50.3459 34.7975C50.4836 34.7975 50.6213 34.8252 50.759 34.8252C52.246 34.8807 53.7882 34.6312 55.1927 34.1878C56.0739 33.9107 56.9276 33.5504 57.6712 33.0238C57.9741 32.8021 58.277 32.5527 58.5249 32.2755C58.5524 32.2201 58.6075 32.1647 58.635 32.1369C58.6075 32.1092 58.5799 32.1092 58.5524 32.1092C58.4698 32.0815 58.4698 31.9429 58.6075 31.9152C58.7452 31.8875 58.938 31.9429 59.0206 32.0261C59.1032 32.1092 59.1583 32.2201 59.1858 32.3864C59.296 32.4972 59.2684 32.6912 59.1858 32.719ZM57.1755 33.9938C55.8536 34.7144 54.339 35.1024 52.8519 35.2964C53.265 35.4904 53.6781 35.629 54.1187 35.6844C54.5318 35.7121 54.9173 35.6567 55.3028 35.5458C55.6884 35.435 56.0739 35.241 56.4044 34.9915C56.7349 34.7144 56.9827 34.3541 57.1755 33.9938ZM48.7762 30.7789C48.5283 30.3355 48.3906 29.8367 48.308 29.3378C48.2254 28.8389 48.1979 28.3124 48.308 27.8135C48.3906 27.3146 48.6109 26.8712 49.024 26.5941C49.3545 26.3446 49.7676 26.2061 50.1806 26.2061C50.2908 26.2061 50.4009 26.2061 50.5111 26.2338C51.5576 26.4555 52.0533 27.3146 52.4664 28.5341C52.9345 29.8644 52.604 31.5272 51.7503 31.8875C51.53 31.9707 51.1996 32.0815 51.1996 32.0815C50.9793 32.1369 50.759 32.1924 50.5386 32.1924C50.2908 32.1924 50.0429 32.1369 49.8226 31.9984C49.382 31.6935 49.024 31.2501 48.7762 30.7789ZM49.1617 30.5849C49.4096 31.0561 49.7125 31.4164 50.0429 31.6104C50.2082 31.6935 50.3734 31.7489 50.5662 31.7489C50.7314 31.7489 50.8966 31.7212 51.117 31.6658C51.1996 31.6381 51.475 31.5549 51.6127 31.4995C51.888 31.3887 52.1083 31.0007 52.2185 30.5018C52.246 30.3078 52.2736 30.1138 52.2736 29.9198C52.2185 30.5572 51.888 31.0561 51.4474 31.1392C50.7865 31.3055 50.0429 30.5849 49.7951 29.5318C49.74 29.2547 49.7125 28.9775 49.7125 28.7281C49.8502 28.8944 50.0154 28.9775 50.2082 28.9221C50.456 28.8667 50.5937 28.5341 50.5111 28.2015C50.4285 27.9521 50.2357 27.7581 50.0429 27.7304C50.1806 27.5364 50.3734 27.3978 50.5662 27.3424C51.0619 27.2315 51.5851 27.5641 51.9156 28.1738C51.9156 28.1461 51.888 28.1184 51.888 28.0906C51.5576 27.4255 50.9793 26.7326 49.8777 27.0375C48.4182 27.4255 48.7486 29.3378 48.9139 29.9198C48.9414 30.1415 49.0516 30.3632 49.1617 30.5849ZM55.9638 30.3078C55.9638 30.3078 55.9913 30.3078 55.9638 30.3078C55.9913 30.3078 55.9638 30.3078 55.9638 30.3078C55.9362 30.3078 55.9638 30.3078 55.9638 30.3078ZM54.2564 28.5341C54.1462 28.0906 53.981 27.4255 54.0361 26.7881C54.0911 25.8735 54.5593 25.3469 55.1101 25.1529C55.7985 24.9312 56.5421 25.2915 56.9552 25.8181C57.203 26.1229 57.4233 26.5664 57.6161 27.0098C57.6712 27.1484 57.7538 27.3146 57.8089 27.4809C57.9741 27.9798 58.0567 28.4786 58.0292 28.9498C58.0016 29.2269 57.9741 29.5041 57.8639 29.7258C57.7813 29.9752 57.6161 30.3078 57.3407 30.4741C57.1479 30.5849 56.9276 30.6127 56.7624 30.6681C56.5972 30.6958 56.4319 30.7235 56.2392 30.7235C56.129 30.7235 56.0189 30.7235 55.9087 30.6958C55.8812 30.6958 55.8812 30.6958 55.8536 30.6958H55.8261C55.3579 30.5572 55.0825 30.1969 54.8347 29.8921C54.6419 29.6149 54.5042 29.3101 54.3941 29.0329C54.3941 29.0329 54.3665 28.9775 54.339 28.8667C54.3114 28.8112 54.2839 28.7281 54.2839 28.6727C54.2564 28.5895 54.2564 28.5618 54.2564 28.5341ZM54.4767 27.2869C54.4767 27.6749 54.5318 28.1184 54.6419 28.5064C54.7521 28.8944 54.9173 29.2824 55.1376 29.6149C55.3304 29.8921 55.5782 30.1692 55.9362 30.2801C55.9362 30.2801 55.9362 30.2801 55.9638 30.2801C55.9913 30.2801 55.9913 30.2801 55.9913 30.2801C56.0739 30.3078 56.1565 30.3078 56.2392 30.3078C56.3769 30.3078 56.5145 30.2801 56.6798 30.2524C56.845 30.2247 57.0102 30.1692 57.1755 30.0861C57.3682 29.9752 57.4509 29.7535 57.5335 29.5595C57.6161 29.3378 57.6436 29.1161 57.6712 28.8944C57.6987 28.5064 57.6436 28.0906 57.5059 27.7026C57.5059 27.7304 57.5059 27.7304 57.5059 27.7581C57.7262 28.7835 57.4233 29.6981 56.8175 29.8367C56.2116 29.9752 55.5507 29.2547 55.3304 28.2569C55.2753 27.9798 55.2478 27.7304 55.2478 27.4809C55.3579 27.6472 55.5507 27.7581 55.7435 27.7026C55.9913 27.6472 56.129 27.3146 56.0464 27.0098C55.9638 26.7326 55.7435 26.5386 55.5232 26.5386C55.6333 26.3724 55.7985 26.2338 55.9913 26.2061C56.3769 26.1229 56.7899 26.3724 57.0929 26.8712C57.0102 26.7326 56.9276 26.5941 56.845 26.4555C56.6247 26.1506 56.2942 25.8458 55.9087 25.7626C55.8536 25.7626 55.771 25.7349 55.7159 25.7349C55.3579 25.7349 54.9999 25.9012 54.8071 26.1784C54.5593 26.4832 54.4767 26.8989 54.4767 27.2869Z" fill="black"/>
</svg>
