<svg xmlns="http://www.w3.org/2000/svg" version="1.1" xmlns:xlink="http://www.w3.org/1999/xlink" width="980" height="980"><svg xmlns="http://www.w3.org/2000/svg" version="1.1" xmlns:xlink="http://www.w3.org/1999/xlink" width="980" height="980"><svg width="980" height="980" viewBox="0 0 980 980" fill="none" xmlns="http://www.w3.org/2000/svg">
<g clip-path="url(#clip0_50_7)">
<path d="M270.95 370.91C270.95 344.765 284.523 327.474 311.67 319.04L407.917 293.737C432.596 285.303 454.807 273.917 474.55 259.578L460.977 250.722C438.765 236.385 399.691 222.89 343.752 210.238C304.266 200.961 281.232 187.888 274.652 171.019C272.184 165.116 270.95 158.368 270.95 150.777C270.95 133.909 277.942 121.258 291.927 112.823C297.685 109.45 304.266 107.763 311.67 107.762C329.767 107.763 348.277 118.727 367.197 140.656C398.457 177.767 427.66 205.178 454.807 222.889C463.856 228.794 473.316 234.698 483.188 240.601V224.154C483.187 186.201 475.784 144.873 460.977 100.171C455.218 81.6167 452.339 64.7483 452.339 49.5658C452.339 16.6732 467.557 0.226458 497.995 0.225586C520.205 0.226458 533.779 13.2995 538.715 39.4448L539.949 49.5658C539.949 57.1575 533.368 82.8819 520.206 126.739C511.157 158.79 506.632 186.623 506.633 210.238V243.132L515.27 238.071C540.771 222.89 572.031 194.214 609.05 152.042C636.196 120.836 657.584 105.233 673.215 105.232C693.78 105.233 707.764 114.51 715.169 133.065L717.637 150.777C717.636 176.923 707.353 193.37 686.788 200.117L595.477 222.889L544.885 244.397C535.013 249.458 525.553 254.94 516.504 260.843L526.376 267.169C555.167 285.725 597.944 300.907 654.706 312.714C688.433 319.462 708.587 330.005 715.169 344.342C717.636 351.09 718.87 358.681 718.871 367.115C718.87 392.418 707.353 407.178 684.32 411.394C681.029 412.238 677.739 412.66 674.449 412.66C656.35 412.66 634.139 397.057 607.816 365.85C576.556 328.739 552.288 304.28 535.013 292.472C528.432 288.255 521.851 284.882 515.27 282.351L506.633 278.555V287.411C506.632 340.547 515.27 389.044 532.546 432.902L541.183 462V467.06C541.183 489.833 531.722 505.858 512.802 515.135C507.043 518.51 500.462 520.196 493.059 520.196C473.316 520.196 460.154 510.497 453.573 491.098C451.105 484.351 449.871 477.604 449.871 470.856C449.871 463.265 456.863 437.541 470.848 393.683C483.187 352.355 487.3 316.932 483.188 287.411L481.954 278.555C440.822 306.389 414.087 327.474 401.748 341.812C399.279 344.343 394.755 349.403 388.174 356.994C361.85 387.357 344.163 404.226 335.115 407.599L312.904 411.394C289.87 411.395 276.297 400.009 272.184 377.236C271.361 375.549 270.95 373.441 270.95 370.91ZM0.716797 830.154C0.716711 804.008 14.2901 786.718 41.4369 778.284L137.684 752.981C162.363 744.547 184.574 733.161 204.317 718.822L190.744 709.966C168.533 695.628 129.458 682.134 73.5193 669.482C34.0331 660.205 10.9995 647.131 4.41862 630.263C1.95065 624.359 0.716711 617.612 0.716797 610.021C0.716711 593.152 7.70904 580.501 21.6938 572.067C27.4521 568.693 34.0331 567.006 41.4369 567.006C59.5345 567.006 78.0436 577.971 96.9642 599.9C128.224 637.01 157.427 664.422 184.574 682.133C193.623 688.038 203.083 693.941 212.955 699.845V683.398C212.954 645.445 205.551 604.117 190.744 559.415C184.985 540.86 182.106 523.992 182.106 508.81C182.106 475.917 197.325 459.47 227.762 459.47C249.973 459.47 263.546 472.543 268.482 498.689C269.304 502.063 269.716 505.436 269.716 508.81C269.716 516.401 263.135 542.125 249.973 585.983L237.634 642.914C236.811 652.192 236.399 661.048 236.4 669.482V702.375L245.037 697.315C270.538 682.134 301.798 653.457 338.817 611.286C365.963 580.079 387.351 564.476 402.982 564.476C423.547 564.476 437.532 573.754 444.936 592.309C446.58 597.37 447.403 603.274 447.404 610.021C447.403 636.167 437.12 652.614 416.555 659.361L325.243 682.133C298.096 690.568 271.772 703.219 246.271 720.087L256.143 726.413C284.934 744.969 327.711 760.15 384.473 771.958C418.2 778.705 438.354 789.248 444.936 803.586L448.638 826.359C448.637 851.661 437.12 866.421 414.087 870.638C410.796 871.482 407.506 871.904 404.216 871.904C386.117 871.904 363.906 856.3 337.583 825.094C306.323 787.983 282.055 763.524 264.78 751.716C258.199 747.499 251.618 744.125 245.037 741.595L236.4 737.799V746.655C236.399 799.791 245.037 848.288 262.312 892.146C268.07 906.484 270.95 917.87 270.95 926.304C270.95 949.077 261.489 965.102 242.569 974.38C236.811 977.753 230.23 979.44 222.826 979.44C203.083 979.44 189.921 969.741 183.34 950.342C180.872 943.594 179.638 936.847 179.638 930.1C179.638 922.509 186.63 896.785 200.615 852.927C212.954 811.599 217.068 776.175 212.955 746.655L211.721 737.799C170.589 765.632 143.854 786.718 131.515 801.056L117.941 816.238C91.617 846.601 73.9305 863.469 64.8817 866.843C59.1232 869.373 51.7196 870.638 42.6708 870.638C19.6371 870.638 6.06378 859.252 1.95074 836.48C1.12802 834.793 0.716711 832.684 0.716797 830.154ZM531.312 830.154C531.311 804.008 544.884 786.718 572.032 778.284L668.279 752.981C692.957 744.547 715.168 733.161 734.912 718.822L721.339 709.966C699.127 695.628 660.052 682.134 604.114 669.482L560.926 656.831C541.182 646.71 531.311 631.106 531.312 610.021C531.311 593.152 538.303 580.501 552.289 572.067C558.046 568.693 564.627 567.006 572.032 567.006C590.129 567.006 608.638 577.971 627.559 599.9C658.818 637.01 688.021 664.422 715.169 682.133C724.217 688.038 733.677 693.941 743.55 699.845V683.398C743.549 645.445 736.145 604.117 721.339 559.415C715.579 540.86 712.7 523.992 712.701 508.81C712.7 475.917 727.919 459.47 758.357 459.47C780.567 459.47 794.14 472.543 799.077 498.689C799.899 502.063 800.31 505.436 800.311 508.81C800.31 516.401 793.729 542.125 780.568 585.983L768.228 642.914C767.405 652.192 766.994 661.048 766.994 669.482V702.375L775.632 697.315C801.133 682.134 832.392 653.457 869.412 611.286C896.557 580.079 917.946 564.476 933.576 564.476C954.141 564.476 968.126 573.754 975.531 592.309C977.175 597.37 977.997 603.274 977.998 610.021C977.997 636.167 967.714 652.614 947.15 659.361L855.838 682.133L805.247 703.641L776.866 720.087L786.738 726.413C815.529 744.969 858.305 760.15 915.067 771.958C948.794 778.705 968.948 789.248 975.531 803.586L979.232 826.359C979.231 851.661 967.714 866.421 944.682 870.638C941.39 871.482 938.1 871.904 934.81 871.904C916.712 871.904 894.501 856.3 868.178 825.094C836.917 787.983 812.649 763.524 795.375 751.716L775.632 741.595L766.994 737.799V746.655C766.994 799.791 775.631 848.288 792.907 892.146C798.665 906.484 801.544 917.87 801.545 926.304C801.544 949.077 792.084 965.102 773.164 974.38C767.405 977.753 760.824 979.44 753.421 979.44C733.677 979.44 720.515 969.741 713.935 950.342C711.466 943.594 710.232 936.847 710.233 930.1C710.232 922.509 717.225 896.785 731.21 852.927C743.549 811.599 747.662 776.175 743.55 746.655L742.316 737.799C701.183 765.632 674.448 786.718 662.109 801.056L648.536 816.238C622.211 846.601 604.525 863.469 595.477 866.843C589.717 869.373 582.314 870.638 573.266 870.638C550.231 870.638 536.658 859.252 532.546 836.48C531.722 834.793 531.311 832.684 531.312 830.154Z" fill="#ED225D"></path>
</g>
<defs>
<clipPath id="clip0_50_7">
<rect width="980" height="980" fill="white"></rect>
</clipPath>
</defs>
</svg></svg><style>@media (prefers-color-scheme: light) { :root { filter: none; } }
@media (prefers-color-scheme: dark) { :root { filter: none; } }
</style></svg>