<svg width="20" height="20" viewBox="0 0 20 20" fill="none" xmlns="http://www.w3.org/2000/svg"><link xmlns="" type="text/css" rel="stylesheet" id="dark-mode-custom-link"/><link xmlns="" type="text/css" rel="stylesheet" id="dark-mode-general-link"/><style xmlns="" lang="en" type="text/css" id="dark-mode-custom-style"/><style xmlns="" lang="en" type="text/css" id="dark-mode-native-style"/>
<path d="M14.2939 12.5786H13.3848L13.0703 12.2642C14.191 10.9663 14.8656 9.27959 14.8656 7.43282C14.8656 3.32762 11.538 0 7.43282 0C3.32762 0 0 3.32762 0 7.43282C0 11.538 3.32762 14.8656 7.43282 14.8656C9.27959 14.8656 10.9663 14.191 12.2642 13.076L12.5786 13.3905V14.2939L18.2962 20L20 18.2962L14.2939 12.5786ZM7.43282 12.5786C4.5912 12.5786 2.28702 10.2744 2.28702 7.43282C2.28702 4.5912 4.5912 2.28702 7.43282 2.28702C10.2744 2.28702 12.5786 4.5912 12.5786 7.43282C12.5786 10.2744 10.2744 12.5786 7.43282 12.5786Z" transform="translate(20) scale(-1 1)" fill="#828282"/>
</svg>