<svg width="998" height="998" viewBox="0 0 998 998" fill="none" xmlns="http://www.w3.org/2000/svg">
<rect width="998" height="998" rx="210" fill="white"/>
<path d="M168.313 669.903C171.701 668.655 175.713 667.674 180.35 666.961C184.986 666.069 189.712 665.267 194.526 664.554C199.341 663.84 204.067 663.305 208.703 662.949C213.518 662.414 217.708 661.879 221.275 661.344V335.549H129.795L124.713 400.012C119.542 400.726 114.192 401.082 108.664 401.082C103.136 400.904 98.3214 400.369 94.2199 399.477C93.685 394.484 93.0608 388.332 92.3476 381.021C91.6343 373.532 91.0101 365.775 90.4752 357.75C89.9402 349.547 89.4944 341.434 89.1378 333.409C88.7811 325.206 88.6028 317.717 88.6028 310.94L94.2199 306.661H396.476L402.361 310.94C402.361 317.717 402.183 325.206 401.826 333.409C401.469 341.434 400.935 349.547 400.221 357.75C399.686 365.775 399.062 373.532 398.349 381.021C397.636 388.332 397.011 394.484 396.476 399.477C392.375 400.369 387.56 400.904 382.032 401.082C376.683 401.082 371.422 400.726 366.251 400.012L360.901 335.549H269.154V660.274L328.268 670.438C328.625 671.33 328.803 672.667 328.803 674.451C328.803 676.056 328.803 677.482 328.803 678.73C328.803 681.227 328.446 684.08 327.733 687.29C327.02 690.5 326.307 692.729 325.593 693.977H170.72L168.313 669.903Z" fill="black"/>
<path d="M433.391 673.333C436.296 672.263 439.737 671.422 443.713 670.81C447.689 670.046 451.741 669.357 455.87 668.746C459.998 668.134 464.051 667.675 468.026 667.37C472.155 666.911 475.749 666.452 478.807 665.993V386.615H400.361L396.003 441.894C391.568 442.506 386.981 442.812 382.24 442.812C377.5 442.659 373.371 442.2 369.854 441.436C369.395 437.154 368.86 431.878 368.249 425.609C367.637 419.186 367.102 412.535 366.643 405.653C366.184 398.619 365.802 391.661 365.496 384.78C365.19 377.746 365.037 371.324 365.037 365.513L369.854 361.843H629.047L634.094 365.513C634.094 371.324 633.941 377.746 633.635 384.78C633.329 391.661 632.87 398.619 632.259 405.653C631.8 412.535 631.265 419.186 630.653 425.609C630.041 431.878 629.506 437.154 629.047 441.436C625.53 442.2 621.401 442.659 616.661 442.812C612.074 442.812 607.563 442.506 603.128 441.894L598.541 386.615H519.865V665.076L570.557 673.792C570.863 674.557 571.016 675.703 571.016 677.233C571.016 678.609 571.016 679.832 571.016 680.903C571.016 683.043 570.71 685.49 570.098 688.243C569.486 690.995 568.875 692.907 568.263 693.977H435.455L433.391 673.333Z" fill="black"/>
<path d="M675.921 669.903C679.309 668.655 683.321 667.674 687.958 666.961C692.594 666.069 697.32 665.267 702.134 664.554C706.949 663.84 711.675 663.305 716.311 662.949C721.126 662.414 725.316 661.879 728.883 661.344V335.549H637.403L632.321 400.012C627.15 400.726 621.8 401.082 616.272 401.082C610.744 400.904 605.93 400.369 601.828 399.477C601.293 394.484 600.669 388.332 599.956 381.021C599.242 373.532 598.618 365.775 598.083 357.75C597.548 349.547 597.103 341.434 596.746 333.409C596.389 325.206 596.211 317.717 596.211 310.94L601.828 306.661H904.085L909.969 310.94C909.969 317.717 909.791 325.206 909.434 333.409C909.078 341.434 908.543 349.547 907.829 357.75C907.294 365.775 906.67 373.532 905.957 381.021C905.244 388.332 904.62 394.484 904.085 399.477C899.983 400.369 895.168 400.904 889.64 401.082C884.291 401.082 879.03 400.726 873.859 400.012L868.509 335.549H776.762V660.274L835.876 670.438C836.233 671.33 836.411 672.667 836.411 674.451C836.411 676.056 836.411 677.482 836.411 678.73C836.411 681.227 836.055 684.08 835.341 687.29C834.628 690.5 833.915 692.729 833.201 693.977H678.328L675.921 669.903Z" fill="black"/>
</svg>
