<svg width="122" height="64" viewBox="0 0 122 64" fill="none" xmlns="http://www.w3.org/2000/svg">
<g clip-path="url(#clip0_2_2)">
<path d="M111.382 63.2468H111.933L111.492 62.1105C111.96 62.0551 112.373 61.8611 112.566 61.3623C112.814 60.6694 112.538 60.1705 111.437 60.1705H110.225L109.124 63.2468H109.674L110.06 62.166H110.996L111.382 63.2468ZM111.299 60.5585C112.07 60.5585 112.208 60.7525 112.015 61.2514C111.878 61.6671 111.602 61.7503 110.914 61.7503H110.17L110.611 60.5308H111.299V60.5585ZM106.012 63.2468H108.545L108.683 62.8588H106.673L107.003 61.9165H108.793L108.931 61.5285H107.141L107.471 60.5863H109.482L109.619 60.1983H107.086L106.012 63.2468ZM106.149 60.7248L106.287 60.3091C105.984 60.1983 105.599 60.1151 105.186 60.1151C104.277 60.1151 103.506 60.4477 103.12 61.5285C102.735 62.6094 103.258 63.3023 104.415 63.3023C104.745 63.3023 105.075 63.2746 105.378 63.1914L105.544 62.7757C105.213 62.8866 104.91 62.8865 104.58 62.8865C103.726 62.8865 103.368 62.4708 103.643 61.6394C103.919 60.7803 104.552 60.5308 105.186 60.5308C105.571 60.5308 105.902 60.614 106.149 60.7248ZM101.11 63.2468H101.853L102.955 60.1705H102.432L101.468 62.8588L100.642 60.3923C100.614 60.226 100.504 60.1983 100.339 60.1983H99.871L98.769 63.2745H99.265L100.229 60.614L101.11 63.2468ZM97.915 63.2468H98.439L98.246 60.1705H97.668C97.502 60.1705 97.392 60.226 97.31 60.3645L95.134 63.2468H95.712L96.263 62.4708H97.888L97.915 63.2468ZM97.833 62.0828H96.538L97.75 60.4477L97.833 62.0828ZM93.399 63.2468H93.977C94.088 63.2468 94.198 63.1914 94.308 63.0528L96.483 60.1705H95.85L93.867 62.8865L93.702 60.1705H93.179L93.399 63.2468ZM92.077 63.2468H92.6L92.408 60.1705H91.829C91.664 60.1705 91.554 60.226 91.471 60.3645L89.296 63.2468H89.874L90.425 62.4708H92.05L92.077 63.2468ZM91.995 62.0828H90.7L91.912 60.4477L91.995 62.0828ZM89.599 61.2514L90.452 60.1705H89.874L89.186 61.2514H89.599ZM85.082 63.2468H86.597C87.699 63.2468 88.277 62.8034 88.607 61.8334C88.938 60.9465 88.607 60.1705 87.451 60.1705H86.184L85.082 63.2468ZM87.423 60.5863C88.112 60.5863 88.359 61.0574 88.112 61.7503C87.836 62.554 87.423 62.8311 86.625 62.8311H85.771L86.597 60.5585H87.423V60.5863ZM82.301 63.2468H83.044L84.146 60.1705H83.623L82.659 62.8588L81.8328 60.3923C81.8052 60.226 81.6951 60.1983 81.5298 60.1983H81.0617L79.9601 63.2745H80.4558L81.4197 60.614L82.301 63.2468ZM77.8947 62.8865C77.0135 62.8865 76.7932 62.4154 77.0686 61.6671C77.3715 60.808 77.8121 60.5585 78.5281 60.5585C79.4094 60.5585 79.6297 61.0297 79.3543 61.778C79.0514 62.6094 78.6107 62.8865 77.8947 62.8865ZM77.8672 63.3023C78.9137 63.3023 79.5195 62.8311 79.8775 61.8334C80.208 60.9188 79.9326 60.1151 78.5832 60.1151C77.5367 60.1151 76.9309 60.5863 76.5729 61.584C76.2149 62.4985 76.5178 63.3023 77.8672 63.3023ZM74.2045 64.1891C74.535 64.1891 74.7278 64.0783 74.7829 63.8843C74.8655 63.6626 74.8104 63.524 74.6727 63.3023H74.7002C75.0307 63.3023 75.3612 63.2746 75.6641 63.1914L75.8293 62.7757C75.4989 62.8866 75.1959 62.8865 74.8655 62.8865C74.0118 62.8865 73.6538 62.4708 73.9292 61.6394C74.2045 60.7803 74.8379 60.5308 75.4713 60.5308C75.8569 60.5308 76.1873 60.614 76.4352 60.7248L76.5729 60.3091C76.2699 60.1983 75.8844 60.1151 75.4713 60.1151C74.5625 60.1151 73.7915 60.4477 73.4059 61.5285C73.0755 62.4431 73.4059 63.1083 74.2596 63.2745C74.4249 63.4963 74.4799 63.6348 74.4249 63.7457C74.3973 63.8566 74.3147 63.8843 74.1495 63.8843C74.0118 63.8843 73.8465 63.8288 73.7364 63.8011L73.6538 64.0783C73.7639 64.1337 73.9842 64.1891 74.2045 64.1891ZM72.3044 63.2468H72.8276L72.6348 60.1705H72.0565C71.8913 60.1705 71.7811 60.226 71.6985 60.3645L69.523 63.2468H70.1013L70.652 62.4708H72.2768L72.3044 63.2468ZM72.2218 62.0828H70.9274L72.1391 60.4477L72.2218 62.0828ZM69.8259 62.0828L69.9636 61.6671H68.146L68.5316 60.5585H70.5419L70.6796 60.1428H68.146L67.0445 63.2191H67.5952L68.0083 62.0551H69.8259V62.0828ZM62.8035 63.2468H65.3371L65.4748 62.8588H63.4644L63.7949 61.9165H65.5849L65.7226 61.5285H63.9326L64.2631 60.5863H66.2734L66.4111 60.1983H63.8775L62.8035 63.2468ZM61.6193 63.2468H62.1701L61.7295 62.1105C62.1977 62.0551 62.6107 61.8611 62.8035 61.3623C63.0514 60.6694 62.776 60.1705 61.6744 60.1705H60.4627L59.3612 63.2468H59.9119L60.2975 62.166H61.2338L61.6193 63.2468ZM61.5643 60.5585C62.3354 60.5585 62.473 60.7525 62.2803 61.2514C62.1426 61.6671 61.8672 61.7503 61.1787 61.7503H60.4352L60.8758 60.5308H61.5643V60.5585ZM59.7192 60.1705H59.1684L58.5075 61.9997C58.2321 62.748 57.8741 62.8865 57.3508 62.8865C56.6624 62.8865 56.4421 62.6371 56.6624 61.9997L57.3233 60.1705H56.7725L56.1116 61.9997C55.8362 62.7203 56.1391 63.3023 57.2407 63.3023C58.1495 63.3023 58.6452 63.0251 59.0307 62.0274L59.7192 60.1705ZM52.6417 63.2468H55.1753L55.313 62.8588H53.3027L53.6331 61.9165H55.4231L55.5608 61.5285H53.7708L54.1013 60.5863H56.1116L56.2493 60.1983H53.7157L52.6417 63.2468ZM49.6675 63.2468H52.1736L52.3113 62.8311H50.356L51.3199 60.1705H50.7691L49.6675 63.2468ZM46.7209 63.2468H49.2269L49.3646 62.8311H47.4094L48.3732 60.1705H47.8224L46.7209 63.2468ZM45.8672 63.2468L46.9687 60.1705H46.418L45.3164 63.2468H45.8672ZM42.2045 63.2468H44.7381L44.8758 62.8588H42.8655L43.1959 61.9165H44.986L45.1236 61.5285H43.3336L43.6641 60.5863H45.6744L45.8121 60.1983H43.2786L42.2045 63.2468ZM39.0651 63.2468H39.6434L41.7915 60.5863L40.8276 63.2468H41.3784L42.4799 60.1705H41.5987L39.5333 62.7757L39.313 60.4754C39.2854 60.2537 39.2028 60.1705 38.9825 60.1705H38.4868L37.3853 63.2468H37.881L38.8448 60.5585L39.0651 63.2468ZM33.1168 63.2468H35.6503L35.788 62.8588H33.7777L34.1082 61.9165H35.8982L36.0359 61.5285H34.2459L34.5763 60.5863H36.5866L36.7243 60.1983H34.1908L33.1168 63.2468ZM31.4644 63.2468H32.208L33.3095 60.1705H32.7863L31.8224 62.8588L30.9963 60.3923C30.9687 60.226 30.8586 60.1983 30.6934 60.1983H30.2252L29.1236 63.2745H29.6193L30.5832 60.614L31.4644 63.2468ZM29.4541 60.1705H28.9033L28.2424 61.9997C27.967 62.748 27.609 62.8865 27.0858 62.8865C26.3973 62.8865 26.177 62.6371 26.3973 61.9997L27.0582 60.1705H26.5075L25.8465 61.9997C25.5712 62.7203 25.8741 63.3023 26.9756 63.3023C27.8844 63.3023 28.3801 63.0251 28.7656 62.0274L29.4541 60.1705Z" fill="#27509B"/>
<path d="M43.9123 53.4082C43.6644 53.4636 41.7367 53.8239 39.7264 53.8793C36.1188 53.9902 32.9519 52.5213 32.9243 49.8885C32.8692 45.3433 37.4407 42.849 40.8279 42.1562C42.3426 41.8513 45.2617 41.491 48.1532 42.2116L46.4734 46.2856C45.9777 45.177 44.7384 45.1493 44.2427 45.1493C43.0035 45.1216 41.9846 45.4542 41.241 45.7867C39.5336 46.5627 38.0465 49.0848 40.4699 50.0548C41.8193 50.5813 43.4992 50.1656 45.2892 49.8885L43.9123 53.4082Z" fill="#27509B"/>
<path d="M114.384 42.0453L111.492 49.9716C111.52 49.1679 111.685 46.0084 111.795 44.207C111.823 43.4587 111.685 42.8767 111.327 42.5164C110.886 42.0453 110.336 42.0453 110.308 42.0453H103.836L99.623 53.6022H104.332L107.334 45.3987L106.976 53.6022H114.852L119.093 42.0453H114.384Z" fill="#27509B"/>
<path d="M90.149 49.7776H84.697L87.533 42.0453H82.108L77.8672 53.6299H88.745L90.149 49.7776Z" fill="#27509B"/>
<path d="M77.9774 45.0662L79.1064 42.0453H67.4851L63.2441 53.6299H75.0032L76.1323 50.4982H69.6607L70.1288 49.2233H76.1873L77.2063 46.3687H71.1753L71.6159 45.0662H77.9774Z" fill="#27509B"/>
<path d="M60.1045 53.6299L64.3455 42.0453H59.058L57.5159 46.2024H54.7069L56.2491 42.0453H50.9341L46.7207 53.6299H52.0081L53.4402 49.6945H56.2491L54.8171 53.6299H60.1045Z" fill="#27509B"/>
<path d="M28.8763 53.6299L33.1173 42.0453H27.5269L23.3135 53.6299H28.8763Z" fill="#27509B"/>
<path d="M20.1734 53.6299L24.4144 42.073H16.5383L12.4626 48.281C12.4626 48.281 12.7104 45.0384 12.793 44.2347C12.8481 43.6527 12.7655 42.0453 11.3335 42.0453H4.88941L0.648407 53.6022H5.68801L8.74481 45.2602L8.11141 53.6299H12.6002L18.108 45.3987L15.1063 53.6299H20.1734Z" fill="#27509B"/>
<path d="M96.429 53.6299L100.67 42.0453H95.107L90.866 53.6299H96.429Z" fill="#27509B"/>
<path d="M7.3404 35.3107L6.2939 38.193H120.442L121.488 35.3107H7.3404Z" fill="#27509B"/>
<path d="M61.7021 35.3107C61.7847 35.283 61.8674 35.2553 61.95 35.2276C61.95 35.2276 62.0877 35.1721 62.1428 35.1721C62.9689 34.895 64.814 33.925 65.5025 32.567C66.9069 32.0404 67.9259 31.3198 68.5593 30.4607C69.771 30.239 70.7073 29.7124 71.2305 29.4352C72.4422 28.7424 73.2959 28.0772 73.8192 27.3567C74.2598 26.7747 74.5352 26.3312 74.7555 25.8601C75.1686 25.6384 75.6367 25.3612 76.2426 24.9455C78.3631 23.5321 78.8037 20.9269 78.8588 20.6221C78.8588 20.5666 78.8863 20.4835 78.8863 20.4281C78.9965 20.4281 79.1066 20.4281 79.2168 20.4281C81.3372 20.4281 84.119 19.0978 85.606 18.3495H85.633C85.854 18.2386 86.074 18.1278 86.157 18.1001C86.652 17.8784 87.671 17.3241 88.718 16.6312C90.067 15.7166 90.976 14.8852 91.471 14.1092C91.554 13.9983 91.609 13.8598 91.664 13.7212L92.546 13.1669C92.793 13.0006 93.014 12.7789 93.151 12.5018C93.399 12.3632 93.592 12.2523 93.647 12.1969C94.336 11.7535 94.638 10.9775 94.391 10.2292V10.2015C94.17 9.5363 93.564 8.7326 92.546 8.4832C92.188 7.7072 91.416 7.2637 90.563 7.2637C90.37 7.2637 90.205 7.2915 90.095 7.3192C90.039 7.3192 89.819 7.3746 88.167 7.7903L85.716 8.3723C85.936 7.7626 85.909 7.0975 85.633 6.5432C85.303 5.8503 84.614 5.4069 83.898 5.4069C83.651 5.4069 83.403 5.4623 83.182 5.5732H83.155C83.072 5.6286 82.879 5.7117 78.5008 8.5663C78.4457 8.594 78.3906 8.6495 78.3355 8.6772C76.215 10.534 75.444 11.6426 75.2512 11.9198C75.141 12.0583 74.9758 12.3355 74.8106 12.6958C74.7004 12.6403 74.5903 12.5849 74.4801 12.5295C73.5989 12.1415 72.6901 11.9475 71.7538 11.9475C70.0739 11.9475 68.8897 12.6126 68.5868 12.8066C68.4216 12.8898 67.7882 13.2778 66.8519 14.0261C66.4663 14.3309 66.1359 14.6635 65.8329 15.0515C65.1996 15.1901 64.6763 15.3841 64.2908 15.5781C63.7951 15.8275 63.3269 16.2155 62.8037 16.6312L62.7761 16.6589C62.6935 16.7421 62.6109 16.7975 62.5008 16.8806C62.2804 17.0469 61.7021 17.5181 61.1514 18.2941H61.0963C61.0137 18.3218 60.3252 18.4604 59.444 18.8761C59.2236 18.9869 59.0033 19.0978 58.8106 19.2364C58.3149 19.2641 57.5438 19.3472 56.5248 19.6521H56.4698C56.3872 19.6244 55.6161 19.4858 54.6798 19.4858C54.2667 19.4858 53.8811 19.5135 53.5507 19.5689C53.3304 19.5966 52.5317 19.7352 51.8708 19.9292C51.5403 20.0124 50.7417 20.2895 49.8054 20.8992C47.7951 20.4281 45.7847 20.2895 44.518 20.2341C45.7297 18.5989 46.308 16.7143 46.1152 15.1069C45.7297 12.0583 43.6918 10.2569 42.9483 9.7303C41.6815 4.4092 37.9913 2.1366 34.962 1.804C34.3562 1.1112 33.2271 0.6677 31.9328 0.6677C31.4095 0.6677 30.9138 0.7232 30.4181 0.8617C28.7934 1.3052 27.499 2.5523 27.2512 3.9103C25.6264 5.2683 23.0928 8.3169 23.8088 13.7766C23.203 14.6081 22.0188 16.7143 22.8175 19.9292C23.3682 22.1187 24.7176 23.6984 26.7555 24.5298C25.1858 25.3058 23.8088 26.2204 22.6522 27.3012C22.5696 27.3567 22.5145 27.4398 22.4594 27.4952C19.7331 27.6338 17.2546 28.7701 15.2994 30.7933C13.8949 32.2344 12.931 33.8973 12.3252 35.3661H61.7021V35.3107Z" fill="black"/>
<path d="M61.6193 33.537C61.041 33.731 60.0496 34.119 58.6726 34.119C58.6175 34.119 58.59 34.119 58.5349 34.119C57.1029 34.0913 55.3955 33.343 54.1838 31.985C52.9446 30.627 52.2836 28.5761 52.4764 26.553C52.6692 24.5298 53.8809 22.8392 55.3404 21.9247C55.6709 21.7029 56.0289 21.5367 56.3869 21.4258C56.5246 21.3704 56.6898 21.3149 56.8275 21.2872C56.8 21.3149 56.7725 21.3704 56.7449 21.3981C55.2578 23.6152 55.368 26.4698 56.084 28.1604C56.4695 29.0473 56.9101 29.7678 57.4334 30.4053C58.1219 31.2367 58.948 31.8741 59.8843 32.2898C60.7656 32.6778 61.6743 32.8718 62.6107 32.8718C62.7208 32.8718 62.8034 32.8718 62.9136 32.8718C62.4454 33.1767 61.9497 33.4261 61.6193 33.537Z" fill="white"/>
<path d="M64.594 31.0704C64.0432 31.2644 63.3548 31.4307 62.5837 31.4307C61.9228 31.4307 61.1792 31.2921 60.4357 30.9596C58.8109 30.239 57.9296 28.8256 57.3789 27.5784C56.8281 26.3036 56.7179 24.031 57.9021 22.2295C58.563 21.2595 59.4993 20.6775 60.2429 20.345C59.7747 21.7584 59.5544 23.9478 61.0966 26.5807V26.6084V26.6361C61.8677 27.8833 62.8866 28.8256 64.0983 29.463C64.8143 29.851 65.5854 30.1004 66.384 30.239C65.8333 30.5716 65.1723 30.8764 64.594 31.0704Z" fill="white"/>
<path d="M70.4041 27.911C69.7432 28.299 68.8344 28.7701 67.6778 28.8255C67.6227 28.8255 67.5676 28.8255 67.5125 28.8255C65.7776 28.8255 63.6846 27.9941 62.3352 25.8047C59.9118 21.7029 62.5555 18.8761 63.4368 18.1832C63.96 17.7675 64.4833 17.3518 64.8963 17.1024C64.7036 17.6566 64.621 18.0724 64.621 18.2109C64.4282 19.2364 64.5934 20.5667 65.0616 21.7584C65.6674 23.3381 66.7139 24.613 68.0908 25.4167C69.2199 26.0818 70.3765 26.4144 71.5607 26.4144C71.8912 26.4144 72.1941 26.3867 72.4419 26.359C71.8636 27.0518 70.9549 27.6061 70.4041 27.911Z" fill="white"/>
<path d="M18.5763 35.3107C18.6865 34.3961 18.9343 33.2876 19.43 32.0958C19.8431 31.0981 20.3388 30.1558 20.9722 29.2967C19.2097 29.657 17.64 30.5438 16.3181 31.9018C15.4094 32.8164 14.6383 33.9804 14.0049 35.283H18.5763V35.3107Z" fill="white"/>
<path d="M49.145 35.3107C48.842 35.0336 48.5942 34.7841 48.3739 34.5624C47.3274 33.4816 46.5012 31.5693 46.2534 30.239C45.8128 28.0773 46.1157 25.971 47.1346 24.0032C47.4651 23.3935 47.8506 22.8115 48.3188 22.3127C46.0331 21.8969 43.8575 21.8692 43.1415 21.8692C43.0589 22.0355 42.9487 22.1741 42.811 22.3127C41.9849 23.0332 41.2964 23.1995 41.7921 22.673C42.2603 22.1187 42.2327 21.5367 42.095 21.3981C41.9849 21.2872 41.7921 21.3704 41.682 21.3981C40.3326 21.8969 40.0847 21.6752 40.3601 21.5089C41.5718 20.7607 42.2603 20.0955 42.6734 19.6798C43.6923 18.5158 44.5184 16.8252 44.3257 15.2732C44.1054 13.4718 43.0864 12.0583 42.04 11.1992C41.9298 11.1161 41.8472 11.0329 41.7921 11.0052C41.7646 10.9775 41.737 10.9498 41.7095 10.9498C41.5443 10.8389 41.324 10.7003 41.1587 10.6449C40.8833 10.5618 40.966 10.3678 41.2689 10.2846C41.2413 10.1461 41.2138 9.9798 41.1863 9.8412C41.1587 9.7026 41.1037 9.564 41.0761 9.4255C39.8644 5.3792 37.0004 3.6609 34.632 3.4115C34.6045 3.4115 34.577 3.4115 34.5494 3.4115C33.9987 3.356 33.6131 3.356 33.5305 3.356C33.145 3.3006 33.3102 3.1343 33.5305 3.0512C33.6131 3.0235 33.6407 2.9403 33.6131 2.8849C33.3377 2.4692 32.0709 2.0812 30.7491 2.4692C30.0606 2.6632 29.4548 3.1066 29.0968 3.55C29.0417 3.6332 28.9866 3.744 28.9315 3.8272C28.9315 3.8549 28.904 3.8826 28.904 3.9103C28.8489 4.0766 29.0417 4.0212 29.0417 4.0212C29.6751 3.8826 29.9505 4.0489 29.4548 4.326C29.1518 4.4923 28.7112 4.7972 28.4083 5.0189C27.6923 5.5732 26.756 6.4878 26.095 7.8735C25.4892 9.1483 25.1863 10.6449 25.2413 12.2523C25.2689 12.4741 25.2689 12.9175 25.2964 13.0561C25.324 13.2224 25.4341 13.3886 25.8197 13.3332C26.3429 13.2778 26.6734 13.1669 26.2052 13.5549C26.0124 13.6935 25.4066 14.2755 25.0486 14.7189C24.3326 15.6335 23.7818 17.3241 24.3326 19.4581C24.8007 21.2872 25.9298 22.5067 27.7198 23.0887C28.7938 23.3935 31.2448 23.8092 33.145 23.6984C33.3377 23.6984 33.3928 23.7261 33.3653 23.8092C33.3377 23.8924 33.2 23.9478 33.0073 23.9755C32.7043 24.031 32.0434 24.1418 30.9143 24.2527C30.6665 24.2804 30.4737 24.4467 30.4462 24.5575V24.5852C30.3085 25.0841 31.3274 25.4998 31.4376 25.5552C31.8231 25.6661 31.6579 25.8878 31.4926 25.9155C30.7766 26.0541 29.4823 25.7492 28.7938 25.6938C28.3257 25.6661 27.9677 25.7492 27.83 25.8324C26.2052 26.553 24.8283 27.4675 23.6992 28.5207C22.4324 29.7124 21.4685 31.1258 20.8351 32.6778C20.4496 33.6478 20.2293 34.5624 20.1191 35.3384H49.145V35.3107Z" fill="white"/>
<path d="M49.42 33.537C50.0258 34.1744 50.7143 34.8396 51.8159 35.3107H56.7728C56.4148 35.1999 56.0293 35.0613 55.6713 34.895C54.7074 34.4516 53.8262 33.7864 53.1377 33.0104C52.3942 32.179 51.8159 31.1536 51.4303 29.9896C51.0723 28.8533 50.9346 27.6061 51.0448 26.4421C51.1549 25.2504 51.568 24.0864 52.2289 23.061C52.6696 22.3404 53.2479 21.7307 53.8813 21.2041C53.8262 21.2041 53.7436 21.2318 53.6885 21.2318C53.6885 21.2318 52.8348 21.3427 52.2289 21.5367C51.6231 21.7307 49.5301 22.5067 48.4286 24.6684C47.2995 26.8301 47.4372 28.7147 47.685 29.9341C47.9054 31.1536 48.6489 32.761 49.42 33.537Z" fill="white"/>
<path d="M92.849 10.9775C92.711 11.0607 92.518 11.1715 92.353 11.2824V11.2547C92.105 10.839 91.775 10.5618 91.361 10.4787C90.728 10.3401 89.929 10.5895 88.883 11.2824C87.341 12.2801 84.945 12.8621 84.917 12.8621C84.752 12.8898 84.642 13.0561 84.697 13.2224C84.725 13.361 84.862 13.4718 85 13.4718C85.028 13.4718 85.055 13.4718 85.083 13.4718C85.193 13.4441 87.616 12.8621 89.241 11.809C90.122 11.227 90.811 10.9775 91.251 11.0884C91.472 11.1438 91.637 11.2547 91.775 11.5041C91.967 11.809 91.802 11.9752 91.775 11.9752C91.747 11.9752 91.003 12.4741 90.673 12.6681C90.508 12.5018 90.177 12.2247 89.682 12.1692C89.131 12.1138 88.552 12.3632 87.974 12.9175C86.57 14.2478 85.055 14.6635 85.028 14.6912C84.862 14.7467 84.78 14.913 84.807 15.0792C84.835 15.2178 84.972 15.301 85.11 15.301C85.138 15.301 85.165 15.301 85.193 15.301C85.248 15.2733 86.873 14.8298 88.387 13.3887C88.828 12.973 89.241 12.779 89.599 12.8067C89.957 12.8344 90.177 13.0838 90.232 13.1392C90.26 13.167 90.315 13.2778 90.232 13.3887C89.379 14.7467 86.404 16.465 85.551 16.8253C84.917 17.1024 82.384 18.4604 80.3184 18.9038C80.0981 18.9593 79.8503 18.987 79.6299 19.0147C79.6024 19.0147 79.5749 19.0147 79.5473 19.0147C79.2444 19.0147 77.8399 19.0424 77.4268 18.6267C76.821 18.017 76.6007 18.4604 76.7934 19.2364C76.1325 19.6244 75.1411 20.2341 74.8933 20.4004C74.2048 20.8161 73.3236 20.345 73.1583 20.345C72.8003 20.345 73.654 21.4258 74.37 21.5367C75.1411 21.6476 76.5731 20.733 76.5731 20.733L77.1239 20.3727C77.1239 20.3727 76.7935 22.479 75.2513 23.5321C74.2874 24.1696 73.8743 24.3913 73.5163 24.5576C73.2685 24.6684 72.5525 25.0564 71.4785 25.0564C70.7074 25.0564 69.7986 24.8624 68.7521 24.2527C66.2461 22.7561 65.7504 19.8184 65.9707 18.5158C65.9707 18.5158 66.2461 16.5758 67.7332 15.4395C68.7246 14.6635 69.3029 14.331 69.3029 14.331C69.3029 14.331 70.2392 13.7212 71.6162 13.7212C72.222 13.7212 72.9105 13.8321 73.6265 14.1647C73.4062 14.331 73.2134 14.4972 73.1033 14.6358C72.8279 15.0792 72.4148 16.0493 72.6902 16.0493C72.8829 16.0493 73.0206 15.5504 73.6816 15.2178C74.012 15.0515 75.5542 14.137 75.5542 14.137C75.5542 14.137 75.6093 13.8875 75.6919 13.749C75.6919 13.749 75.8847 13.3332 76.2702 12.7512C76.2978 12.7235 76.3528 12.6404 76.4354 12.5018C76.6558 12.197 76.9587 11.8367 77.3167 11.5041C77.7298 11.0607 78.3081 10.5064 79.0792 9.8135C79.0792 9.8135 83.375 7.0144 83.568 6.9035C83.596 6.8758 83.651 6.8758 83.678 6.8758C84.036 6.8758 84.559 7.5132 83.926 8.3724C83.403 9.0652 82.797 9.5364 82.329 9.8967C82.191 10.0075 81.9983 10.1184 81.8606 10.1738C81.1996 10.3955 80.3459 10.9221 80.2083 11.0329C80.0706 11.1438 80.0706 11.3378 80.2358 11.2547C80.8141 11.0052 81.7229 10.7835 81.8881 10.7281C82.88 10.5064 90.067 8.7604 90.177 8.7327C90.205 8.7327 90.287 8.7049 90.343 8.7049C90.59 8.7049 91.003 8.7881 91.114 9.3147C91.114 9.3424 91.114 9.3424 91.114 9.3701L84.532 11.3378C84.367 11.3932 84.284 11.5595 84.339 11.7258C84.367 11.8367 84.477 11.9198 84.587 11.9475C84.642 11.9475 84.697 11.9475 84.725 11.9475L90.59 10.2015C90.701 10.1738 90.921 10.1184 91.361 9.9798L91.417 9.9521C91.554 9.9244 91.664 9.8967 91.775 9.8967C92.38 9.8967 92.738 10.3955 92.849 10.7004C93.014 10.8112 92.959 10.8944 92.849 10.9775Z" fill="white"/>
<path d="M32.1531 16.4927C31.7676 16.7698 31.6849 16.9638 31.6299 17.1024C31.5748 17.241 31.5748 17.3795 31.6023 17.435C31.6299 17.4904 31.6023 17.5735 31.5472 17.6012C31.4922 17.629 31.4371 17.6012 31.4096 17.6012C31.382 17.5735 31.3545 17.5458 31.3269 17.5181C31.2168 17.2687 31.3269 16.7144 31.6023 16.465C31.7125 16.3541 31.8502 16.271 31.9879 16.2155C32.0429 16.1878 32.1806 16.1324 32.2633 16.2432C32.2908 16.3541 32.2082 16.465 32.1531 16.4927ZM41.1858 14.719C41.1032 14.7467 41.0756 14.6358 41.0206 14.4972C40.7727 14.8298 40.2219 15.3564 40.1393 15.4672C40.0292 15.6335 39.919 15.7998 39.8089 15.9661C39.6436 16.271 39.5059 16.5481 39.2856 16.8252C39.0102 17.1855 38.6798 17.5181 38.2942 17.7398C37.5507 18.1832 36.6419 18.405 35.7882 18.2664C35.3476 18.1832 34.907 18.017 34.4939 17.823C34.1634 17.6567 33.8054 17.4627 33.4474 17.435C33.0343 17.435 32.5937 17.4627 32.1806 17.4072C32.0429 17.3795 31.9053 17.3241 31.8777 17.1855C31.8226 16.9915 31.9603 16.7698 32.1531 16.7698C32.2082 16.7698 32.2908 16.7975 32.3459 16.7975C32.4836 16.7975 32.6213 16.8252 32.759 16.8252C34.246 16.8807 35.7882 16.6312 37.1927 16.1878C38.0739 15.9107 38.9276 15.5504 39.6712 15.0238C39.9741 14.8021 40.277 14.5527 40.5249 14.2755C40.5524 14.2201 40.6075 14.1647 40.635 14.1369C40.6075 14.1092 40.5799 14.1092 40.5524 14.1092C40.4698 14.0815 40.4698 13.9429 40.6075 13.9152C40.7452 13.8875 40.938 13.9429 41.0206 14.0261C41.1032 14.1092 41.1583 14.2201 41.1858 14.3864C41.296 14.4972 41.2684 14.6912 41.1858 14.719ZM39.1755 15.9938C37.8536 16.7144 36.339 17.1024 34.8519 17.2964C35.265 17.4904 35.6781 17.629 36.1187 17.6844C36.5318 17.7121 36.9173 17.6567 37.3028 17.5458C37.6884 17.435 38.0739 17.241 38.4044 16.9915C38.7349 16.7144 38.9827 16.3541 39.1755 15.9938ZM30.7762 12.7789C30.5283 12.3355 30.3906 11.8367 30.308 11.3378C30.2254 10.8389 30.1979 10.3124 30.308 9.8135C30.3906 9.3146 30.6109 8.8712 31.024 8.5941C31.3545 8.3446 31.7676 8.2061 32.1806 8.2061C32.2908 8.2061 32.4009 8.2061 32.5111 8.2338C33.5576 8.4555 34.0533 9.3146 34.4664 10.5341C34.9345 11.8644 34.604 13.5272 33.7503 13.8875C33.53 13.9707 33.1996 14.0815 33.1996 14.0815C32.9793 14.1369 32.759 14.1924 32.5386 14.1924C32.2908 14.1924 32.0429 14.1369 31.8226 13.9984C31.382 13.6935 31.024 13.2501 30.7762 12.7789ZM31.1617 12.5849C31.4096 13.0561 31.7125 13.4164 32.0429 13.6104C32.2082 13.6935 32.3734 13.7489 32.5662 13.7489C32.7314 13.7489 32.8966 13.7212 33.117 13.6658C33.1996 13.6381 33.475 13.5549 33.6127 13.4995C33.888 13.3887 34.1083 13.0007 34.2185 12.5018C34.246 12.3078 34.2736 12.1138 34.2736 11.9198C34.2185 12.5572 33.888 13.0561 33.4474 13.1392C32.7865 13.3055 32.0429 12.5849 31.7951 11.5318C31.74 11.2547 31.7125 10.9775 31.7125 10.7281C31.8502 10.8944 32.0154 10.9775 32.2082 10.9221C32.456 10.8667 32.5937 10.5341 32.5111 10.2015C32.4285 9.9521 32.2357 9.7581 32.0429 9.7304C32.1806 9.5364 32.3734 9.3978 32.5662 9.3424C33.0619 9.2315 33.5851 9.5641 33.9156 10.1738C33.9156 10.1461 33.888 10.1184 33.888 10.0906C33.5576 9.4255 32.9793 8.7326 31.8777 9.0375C30.4182 9.4255 30.7486 11.3378 30.9139 11.9198C30.9414 12.1415 31.0516 12.3632 31.1617 12.5849ZM37.9638 12.3078C37.9638 12.3078 37.9913 12.3078 37.9638 12.3078C37.9913 12.3078 37.9638 12.3078 37.9638 12.3078C37.9638 12.3078 37.9362 12.3078 37.9638 12.3078ZM36.2564 10.5341C36.1462 10.0906 35.981 9.4255 36.0361 8.7881C36.0911 7.8735 36.5593 7.3469 37.1101 7.1529C37.7985 6.9312 38.5421 7.2915 38.9552 7.8181C39.203 8.1229 39.4233 8.5664 39.6161 9.0098C39.6712 9.1484 39.7538 9.3146 39.8089 9.4809C39.9741 9.9798 40.0567 10.4786 40.0292 10.9498C40.0016 11.2269 39.9741 11.5041 39.8639 11.7258C39.7813 11.9752 39.6161 12.3078 39.3407 12.4741C39.1479 12.5849 38.9276 12.6127 38.7624 12.6681C38.5972 12.6958 38.4319 12.7235 38.2392 12.7235C38.129 12.7235 38.0189 12.7235 37.9087 12.6958C37.8812 12.6958 37.8812 12.6958 37.8536 12.6958H37.8261C37.3579 12.5572 37.0825 12.1969 36.8347 11.8921C36.6419 11.6149 36.5042 11.3101 36.3941 11.0329C36.3941 11.0329 36.3665 10.9775 36.339 10.8667C36.3114 10.8112 36.2839 10.7281 36.2839 10.6727C36.2564 10.5895 36.2564 10.5618 36.2564 10.5341ZM36.4767 9.2869C36.4767 9.6749 36.5318 10.1184 36.6419 10.5064C36.7521 10.8944 36.9173 11.2824 37.1376 11.6149C37.3304 11.8921 37.5782 12.1692 37.9362 12.2801C37.9362 12.2801 37.9362 12.2801 37.9638 12.2801C37.9913 12.2801 37.9913 12.2801 37.9913 12.2801C38.0739 12.3078 38.1565 12.3078 38.2392 12.3078C38.3769 12.3078 38.5145 12.2801 38.6798 12.2524C38.845 12.2247 39.0102 12.1692 39.1755 12.0861C39.3682 11.9752 39.4509 11.7535 39.5335 11.5595C39.6161 11.3378 39.6436 11.1161 39.6712 10.8944C39.6987 10.5064 39.6436 10.0906 39.5059 9.7026C39.5059 9.7304 39.5059 9.7304 39.5059 9.7581C39.7262 10.7835 39.4233 11.6981 38.8175 11.8367C38.2116 11.9752 37.5507 11.2547 37.3304 10.2569C37.2753 9.9798 37.2478 9.7304 37.2478 9.4809C37.3579 9.6472 37.5507 9.7581 37.7435 9.7026C37.9913 9.6472 38.129 9.3146 38.0464 9.0098C37.9638 8.7326 37.7435 8.5386 37.5232 8.5386C37.6333 8.3724 37.7985 8.2338 37.9913 8.2061C38.3769 8.1229 38.7899 8.3724 39.0929 8.8712C39.0102 8.7326 38.9276 8.5941 38.845 8.4555C38.6247 8.1506 38.2942 7.8458 37.9087 7.7626C37.8536 7.7626 37.771 7.7349 37.7159 7.7349C37.3579 7.7349 36.9999 7.9012 36.8071 8.1784C36.5593 8.4832 36.4767 8.8989 36.4767 9.2869Z" fill="black"/>
</g>
<defs>
<clipPath id="clip0_2_2">
<rect width="122" height="64" fill="white"/>
</clipPath>
</defs>
</svg>
