<svg width="115" height="40" viewBox="0 0 115 40" fill="none" xmlns="http://www.w3.org/2000/svg">
<g clip-path="url(#clip0)">
<path d="M111.897 13.2422V39.1119H106.242V13.2422H111.897Z" fill="#FFB527"/>
<path d="M73.8908 13.2422V39.1756H68.2152V36.6461C65.9619 38.6867 63.1348 39.8559 59.7762 39.8559C53.0377 39.8559 48.5312 35.0518 48.5312 27.6119V13.2422H54.2068V27.2505C54.2068 31.9908 56.8002 34.6479 60.9453 34.6479C63.4749 34.6479 66.132 33.2237 68.2364 30.5666V13.2422H73.8908Z" fill="#3C3C3B"/>
<path d="M12.2015 35.1369C15.5601 35.1369 17.8771 34.0315 17.8771 31.9909C17.8771 30.4391 16.6017 29.3338 14.4122 28.9511L8.67283 27.9521C4.69778 27.2931 0.999076 25.2949 0.999076 20.6184C0.999076 15.6018 5.35675 12.5195 11.8189 12.5195C16.8355 12.5195 22.6386 14.2201 23.1913 21.0223H17.8771C17.6007 18.2164 15.1137 17.111 11.8189 17.111C8.50277 17.111 6.69593 18.3227 6.69593 20.1508C6.69593 21.5325 7.69501 22.8504 10.7135 23.3606L15.5601 24.1258C19.4713 24.8486 23.3401 26.5491 23.3401 31.5657C23.3401 37.0288 18.536 39.8347 12.0314 39.8347C5.90943 39.8347 0.658965 37.4114 0 30.5667L5.29298 30.6304C5.90943 33.819 8.26895 35.1369 12.2015 35.1369Z" fill="#3C3C3B"/>
<path d="M46.2569 38.7732C44.0037 39.6022 42.1118 39.8147 40.3475 39.8147C33.7366 39.8147 30.2079 35.8397 30.2079 29.165V18.0476H24.0859V13.2436H30.2079V3.69922H35.9473V13.2436H45.5554V18.0476H35.9473V29.1863C35.9473 32.9275 37.8179 34.543 41.0277 34.543C42.5795 34.543 44.11 34.0966 45.4492 33.544L46.2569 38.7732Z" fill="#3C3C3B"/>
<path d="M114.851 0L106.242 2.95471L111.897 8.63031L114.851 0Z" fill="#FFB527"/>
<path d="M103.268 0V39.1553H97.5711V37.0508C95.3603 38.8152 92.5544 39.8142 89.2383 39.8142C81.9472 39.8142 76.1016 33.756 76.1016 26.1248C76.1016 18.6211 81.9472 12.5628 89.2383 12.5628C92.5544 12.5628 95.3603 13.5619 97.5711 15.2625V0H103.268ZM97.5711 30.8438V21.512C95.6367 18.7486 92.9371 17.7708 90.0674 17.7708C85.3271 17.7708 81.8409 21.5758 81.8409 26.146C81.8409 30.78 85.3058 34.6488 90.0674 34.6488C92.9371 34.6488 95.6367 33.6497 97.5711 30.8438Z" fill="#FFB527"/>
</g>
<defs>
<clipPath id="clip0">
<rect width="115" height="39.963" fill="white"/>
</clipPath>
</defs>
</svg>
